<?xml version="1.0" encoding="utf-8"?>
<!-- Generator: Adobe Illustrator 19.1.0, SVG Export Plug-In . SVG Version: 6.00 Build 0)  -->
<!DOCTYPE svg PUBLIC "-//W3C//DTD SVG 1.1//EN" "http://www.w3.org/Graphics/SVG/1.1/DTD/svg11.dtd">
<svg version="1.1" id="Layer_1" xmlns="http://www.w3.org/2000/svg" xmlns:xlink="http://www.w3.org/1999/xlink" x="0px" y="0px"
	 viewBox="20.3 47.4 20 20" style="enable-background:new 20.3 47.4 20 20;" xml:space="preserve">
<style type="text/css">
	.st0{fill:none;}
	.st1{fill:#4c4c4c;}
</style>
<g xmlns="http://www.w3.org/2000/svg" id="Your_Icon">
	<rect x="20.3" y="47.4" class="st0" width="20" height="20"/>
	<path d="M32.4,64c-0.9,0-1.7,0.8-1.7,1.7c0,0.9,0.8,1.7,1.7,1.7c0.9,0,1.7-0.8,1.7-1.7C34.1,64.8,33.3,64,32.4,64z" class="st1"/>
	<circle xmlns="http://www.w3.org/2000/svg" class="st1" cx="26.4" cy="65.7" r="1.7"/>
	<path xmlns="http://www.w3.org/2000/svg" class="st1" d="M39.3,47.4h-1.9c-0.4,0-0.8,0.2-0.9,0.6l-2.5,8.8h-9.2l-2-4.4h10.2c0.5,0,1-0.4,1-0.9c0-0.5-0.4-0.9-1-0.9H21.3   c-0.3,0-0.6,0.1-0.8,0.3c-0.2,0.3-0.2,0.6-0.1,0.9l2.8,6.3c0.2,0.3,0.5,0.5,0.9,0.5h9.3l-0.5,1.8h-7.6c-0.5,0-1,0.5-1,1s0.4,1,1,1   h8.3c0.4,0,0.8-0.2,0.9-0.6l3.6-12.6h1.2c0.5,0,1-0.4,1-0.9C40.2,47.8,39.8,47.4,39.3,47.4z"/>
</g>
</svg>
