<?xml version="1.0" encoding="utf-8"?>
<!-- Generator: Adobe Illustrator 19.1.0, SVG Export Plug-In . SVG Version: 6.00 Build 0)  -->
<!DOCTYPE svg PUBLIC "-//W3C//DTD SVG 1.1//EN" "http://www.w3.org/Graphics/SVG/1.1/DTD/svg11.dtd">
<svg version="1.1" id="Layer_1" xmlns="http://www.w3.org/2000/svg" xmlns:xlink="http://www.w3.org/1999/xlink" x="0px" y="0px"
	 viewBox="0 0 24.9 20.9" style="enable-background:new 0 0 24.9 20.9;" xml:space="preserve">
<style type="text/css">
	.st0{fill:#4c4c4c;}
</style>
<g>
	<path class="st0" d="M10.6,8.4c0-1,0.9-1.9,1.9-1.9c1,0,1.9,0.9,1.9,1.9c0,1-0.9,1.9-1.9,1.9C11.4,10.3,10.6,9.5,10.6,8.4z
		 M16.2,8.4c0-1,0.9-1.9,1.9-1.9c1,0,1.9,0.9,1.9,1.9c0,1-0.9,1.9-1.9,1.9C17,10.3,16.2,9.5,16.2,8.4z M5,8.4c0-1,0.9-1.9,1.9-1.9
		s1.9,0.9,1.9,1.9c0,1-0.9,1.9-1.9,1.9C5.8,10.3,5,9.5,5,8.4z"/>
	<path class="st0" d="M19.7,20.9c-0.2,0-0.4-0.1-0.6-0.2l-7.7-4.5H1.1c-0.6,0-1.1-0.5-1.1-1.1V1.1C0,0.5,0.5,0,1.1,0h22.8
		c0.6,0,1.1,0.5,1.1,1.1v14.1c0,0.6-0.5,1.1-1.1,1.1h-3.1v3.6c0,0.4-0.2,0.8-0.5,0.9C20.1,20.9,19.9,20.9,19.7,20.9z M2.2,14.1h9.6
		c0.2,0,0.4,0.1,0.6,0.2l6.2,3.7l0-3.9h4.1V2.2H2.2V14.1z"/>
</g>
</svg>
