<?xml version="1.0" encoding="utf-8"?>
<!-- Generator: Adobe Illustrator 19.2.0, SVG Export Plug-In . SVG Version: 6.00 Build 0)  -->
<svg version="1.1" id="Layer_1" xmlns="http://www.w3.org/2000/svg" xmlns:xlink="http://www.w3.org/1999/xlink" x="0px" y="0px"
	 viewBox="0 0 63 63" style="enable-background:new 0 0 63 63;" xml:space="preserve">
<style type="text/css">
	.st0{fill:#02868B;}
</style>
<g>
	<path class="st0" d="M-505.4,56.6h-44c-1.4,0-2.6-1.2-2.6-2.6V26c0-1.4,1.2-2.6,2.6-2.6h44c1.4,0,2.6,1.2,2.6,2.6v28
		C-502.8,55.4-503.9,56.6-505.4,56.6z M-549.4,24.6c-0.8,0-1.4,0.6-1.4,1.4v28c0,0.8,0.6,1.4,1.4,1.4h44c0.8,0,1.4-0.6,1.4-1.4V26
		c0-0.8-0.6-1.4-1.4-1.4H-549.4z"/>
	<path class="st0" d="M-542.4,34.6h-4c-0.9,0-1.6-0.7-1.6-1.6v-4c0-0.9,0.7-1.6,1.6-1.6h4c0.9,0,1.6,0.7,1.6,1.6v4
		C-540.8,33.9-541.5,34.6-542.4,34.6z M-546.4,28.6c-0.2,0-0.4,0.2-0.4,0.4v4c0,0.2,0.2,0.4,0.4,0.4h4c0.2,0,0.4-0.2,0.4-0.4v-4
		c0-0.2-0.2-0.4-0.4-0.4H-546.4z"/>
	<path class="st0" d="M-511.4,52.6c-1.1,0-2.2-0.4-3-1.1c-0.8,0.7-1.9,1.1-3,1.1c-2.5,0-4.6-2.1-4.6-4.6s2.1-4.6,4.6-4.6
		c1.1,0,2.2,0.4,3,1.1c0.8-0.7,1.9-1.1,3-1.1c2.5,0,4.6,2.1,4.6,4.6S-508.8,52.6-511.4,52.6z M-514.4,50c0.2,0,0.4,0.1,0.5,0.2
		c0.6,0.7,1.6,1.2,2.5,1.2c1.9,0,3.4-1.5,3.4-3.4s-1.5-3.4-3.4-3.4c-1,0-1.9,0.4-2.5,1.2c-0.2,0.3-0.7,0.3-0.9,0
		c-0.6-0.7-1.6-1.2-2.5-1.2c-1.9,0-3.4,1.5-3.4,3.4s1.5,3.4,3.4,3.4c1,0,1.9-0.4,2.5-1.2C-514.7,50.1-514.6,50-514.4,50z"/>
	<path class="st0" d="M-527.4,52.6h-18c-0.3,0-0.6-0.3-0.6-0.6s0.3-0.6,0.6-0.6h18c0.3,0,0.6,0.3,0.6,0.6S-527,52.6-527.4,52.6z"/>
	<path class="st0" d="M-541.4,48.6h-4c-0.3,0-0.6-0.3-0.6-0.6s0.3-0.6,0.6-0.6h4c0.3,0,0.6,0.3,0.6,0.6S-541,48.6-541.4,48.6z"/>
	<path class="st0" d="M-545.4,40.6c-0.3,0-0.6-0.3-0.6-0.6v-1c0-0.3,0.3-0.6,0.6-0.6s0.6,0.3,0.6,0.6v1
		C-544.8,40.3-545,40.6-545.4,40.6z"/>
	<path class="st0" d="M-541.4,40.6c-0.3,0-0.6-0.3-0.6-0.6v-1c0-0.3,0.3-0.6,0.6-0.6s0.6,0.3,0.6,0.6v1
		C-540.8,40.3-541,40.6-541.4,40.6z"/>
	<path class="st0" d="M-537.4,40.6c-0.3,0-0.6-0.3-0.6-0.6v-1c0-0.3,0.3-0.6,0.6-0.6s0.6,0.3,0.6,0.6v1
		C-536.8,40.3-537,40.6-537.4,40.6z"/>
	<path class="st0" d="M-525.4,40.6c-0.3,0-0.6-0.3-0.6-0.6v-1c0-0.3,0.3-0.6,0.6-0.6s0.6,0.3,0.6,0.6v1
		C-524.8,40.3-525,40.6-525.4,40.6z"/>
	<path class="st0" d="M-513.4,40.6c-0.3,0-0.6-0.3-0.6-0.6v-1c0-0.3,0.3-0.6,0.6-0.6s0.6,0.3,0.6,0.6v1
		C-512.8,40.3-513,40.6-513.4,40.6z"/>
	<path class="st0" d="M-533.4,40.6c-0.3,0-0.6-0.3-0.6-0.6v-1c0-0.3,0.3-0.6,0.6-0.6s0.6,0.3,0.6,0.6v1
		C-532.8,40.3-533,40.6-533.4,40.6z"/>
	<path class="st0" d="M-529.4,40.6c-0.3,0-0.6-0.3-0.6-0.6v-1c0-0.3,0.3-0.6,0.6-0.6s0.6,0.3,0.6,0.6v1
		C-528.8,40.3-529,40.6-529.4,40.6z"/>
	<path class="st0" d="M-521.4,40.6c-0.3,0-0.6-0.3-0.6-0.6v-1c0-0.3,0.3-0.6,0.6-0.6s0.6,0.3,0.6,0.6v1
		C-520.8,40.3-521,40.6-521.4,40.6z"/>
	<path class="st0" d="M-517.4,40.6c-0.3,0-0.6-0.3-0.6-0.6v-1c0-0.3,0.3-0.6,0.6-0.6s0.6,0.3,0.6,0.6v1
		C-516.8,40.3-517,40.6-517.4,40.6z"/>
	<path class="st0" d="M-509.4,40.6c-0.3,0-0.6-0.3-0.6-0.6v-1c0-0.3,0.3-0.6,0.6-0.6s0.6,0.3,0.6,0.6v1
		C-508.8,40.3-509,40.6-509.4,40.6z"/>
	<path class="st0" d="M-533.4,48.6h-4c-0.3,0-0.6-0.3-0.6-0.6s0.3-0.6,0.6-0.6h4c0.3,0,0.6,0.3,0.6,0.6S-533,48.6-533.4,48.6z"/>
	<path class="st0" d="M-551.4,38.6h-8c-1.4,0-2.6-1.2-2.6-2.6V8c0-1.4,1.2-2.6,2.6-2.6h44c1.4,0,2.6,1.2,2.6,2.6v16
		c0,0.3-0.3,0.6-0.6,0.6h-36c-0.8,0-1.4,0.6-1.4,1.4v12C-550.8,38.3-551,38.6-551.4,38.6z M-559.4,6.6c-0.8,0-1.4,0.6-1.4,1.4v28
		c0,0.8,0.6,1.4,1.4,1.4h7.4V26c0-1.4,1.2-2.6,2.6-2.6h35.4V8c0-0.8-0.6-1.4-1.4-1.4H-559.4z"/>
	<path class="st0" d="M-513.4,18.6h-48c-0.3,0-0.6-0.3-0.6-0.6v-6c0-0.3,0.3-0.6,0.6-0.6h48c0.3,0,0.6,0.3,0.6,0.6v6
		C-512.8,18.3-513,18.6-513.4,18.6z M-560.8,17.4h46.8v-4.8h-46.8V17.4z"/>
	<path class="st0" d="M-561.4,18.6c-0.2,0-0.3-0.1-0.4-0.2c-0.2-0.2-0.2-0.6,0-0.9l6-6c0.2-0.2,0.6-0.2,0.9,0s0.2,0.6,0,0.9l-6,6
		C-561.1,18.6-561.2,18.6-561.4,18.6z"/>
	<path class="st0" d="M-555.4,18.6c-0.2,0-0.3-0.1-0.4-0.2c-0.2-0.2-0.2-0.6,0-0.9l6-6c0.2-0.2,0.6-0.2,0.9,0s0.2,0.6,0,0.9l-6,6
		C-555.1,18.6-555.2,18.6-555.4,18.6z"/>
	<path class="st0" d="M-549.4,18.6c-0.2,0-0.3-0.1-0.4-0.2c-0.2-0.2-0.2-0.6,0-0.9l6-6c0.2-0.2,0.6-0.2,0.9,0s0.2,0.6,0,0.9l-6,6
		C-549.1,18.6-549.2,18.6-549.4,18.6z"/>
	<path class="st0" d="M-543.4,18.6c-0.2,0-0.3-0.1-0.4-0.2c-0.2-0.2-0.2-0.6,0-0.9l6-6c0.2-0.2,0.6-0.2,0.9,0s0.2,0.6,0,0.9l-6,6
		C-543.1,18.6-543.2,18.6-543.4,18.6z"/>
	<path class="st0" d="M-537.4,18.6c-0.2,0-0.3-0.1-0.4-0.2c-0.2-0.2-0.2-0.6,0-0.9l6-6c0.2-0.2,0.6-0.2,0.9,0c0.2,0.2,0.2,0.6,0,0.9
		l-6,6C-537.1,18.6-537.2,18.6-537.4,18.6z"/>
	<path class="st0" d="M-531.4,18.6c-0.2,0-0.3-0.1-0.4-0.2c-0.2-0.2-0.2-0.6,0-0.9l6-6c0.2-0.2,0.6-0.2,0.9,0c0.2,0.2,0.2,0.6,0,0.9
		l-6,6C-531.1,18.6-531.2,18.6-531.4,18.6z"/>
	<path class="st0" d="M-525.4,18.6c-0.2,0-0.3-0.1-0.4-0.2c-0.2-0.2-0.2-0.6,0-0.9l6-6c0.2-0.2,0.6-0.2,0.9,0c0.2,0.2,0.2,0.6,0,0.9
		l-6,6C-525.1,18.6-525.2,18.6-525.4,18.6z"/>
	<path class="st0" d="M-519.4,18.6c-0.2,0-0.3-0.1-0.4-0.2c-0.2-0.2-0.2-0.6,0-0.9l6-6c0.2-0.2,0.6-0.2,0.9,0c0.2,0.2,0.2,0.6,0,0.9
		l-6,6C-519.1,18.6-519.2,18.6-519.4,18.6z"/>
</g>
<g>
	<path class="st0" d="M-434.5,49.3c-4.8,0-8.8-3.9-8.8-8.8s3.9-8.8,8.8-8.8s8.8,3.9,8.8,8.8S-429.7,49.3-434.5,49.3z M-434.5,33.3
		c-4,0-7.2,3.3-7.2,7.2s3.3,7.2,7.2,7.2s7.2-3.3,7.2-7.2S-430.5,33.3-434.5,33.3z"/>
	<path class="st0" d="M-434.5,45.3c-2.6,0-4.8-2.1-4.8-4.8s2.1-4.8,4.8-4.8s4.8,2.1,4.8,4.8S-431.9,45.3-434.5,45.3z M-434.5,37.3
		c-1.8,0-3.2,1.5-3.2,3.2s1.5,3.2,3.2,3.2s3.2-1.5,3.2-3.2S-432.7,37.3-434.5,37.3z"/>
	<path class="st0" d="M-410.5,21.3c-1.2,0-2.4-0.5-3.4-1.4c-1.9-1.9-1.9-4.9,0-6.7c1.9-1.9,4.9-1.9,6.7,0c0.9,0.9,1.4,2.1,1.4,3.4
		c0,1.3-0.5,2.5-1.4,3.4C-408.1,20.8-409.3,21.3-410.5,21.3z M-410.5,13.3c-0.8,0-1.7,0.3-2.3,1c-1.3,1.3-1.3,3.3,0,4.6
		c1.3,1.3,3.3,1.3,4.6,0c0.6-0.6,1-1.4,1-2.3c0-0.9-0.3-1.7-1-2.3C-408.9,13.6-409.7,13.3-410.5,13.3z"/>
	<path class="st0" d="M-431.9,59.3h-5.3c-0.3,0-0.6-0.2-0.7-0.5l-1.4-4.3c-0.5-0.2-1.1-0.4-1.6-0.7l-4.1,2c-0.3,0.1-0.6,0.1-0.9-0.1
		l-3.8-3.8c-0.2-0.2-0.3-0.6-0.1-0.9l2-4.1c-0.3-0.5-0.5-1.1-0.7-1.6l-4.3-1.4c-0.3-0.1-0.5-0.4-0.5-0.7v-5.3c0-0.3,0.2-0.6,0.5-0.7
		l4.3-1.4c0.2-0.5,0.4-1.1,0.7-1.6l-2-4.1c-0.1-0.3-0.1-0.6,0.1-0.9l3.8-3.8c0.2-0.2,0.6-0.3,0.9-0.1l4.1,2c0.5-0.3,1.1-0.5,1.6-0.7
		l1.4-4.3c0.1-0.3,0.4-0.5,0.7-0.5h5.3c0.3,0,0.6,0.2,0.7,0.5l1.4,4.3c0.5,0.2,1.1,0.4,1.6,0.7l4.1-2c0.3-0.1,0.6-0.1,0.9,0.1
		l3.8,3.8c0.2,0.2,0.3,0.6,0.1,0.9l-2,4.1c0.3,0.5,0.5,1.1,0.7,1.6l4.3,1.4c0.3,0.1,0.5,0.4,0.5,0.7v5.3c0,0.3-0.2,0.6-0.5,0.7
		l-4.3,1.4c-0.2,0.5-0.4,1.1-0.7,1.6l2,4.1c0.1,0.3,0.1,0.6-0.1,0.9l-3.8,3.8c-0.2,0.2-0.6,0.3-0.9,0.1l-4.1-2
		c-0.5,0.3-1.1,0.5-1.6,0.7l-1.4,4.3C-431.2,59.1-431.5,59.3-431.9,59.3z M-436.7,57.8h4.3l1.4-4.1c0.1-0.2,0.3-0.4,0.5-0.5
		c0.7-0.2,1.4-0.5,2.1-0.9c0.2-0.1,0.5-0.1,0.7,0l3.9,2l3-3l-2-3.9c-0.1-0.2-0.1-0.5,0-0.7c0.4-0.7,0.7-1.4,0.9-2.1
		c0.1-0.2,0.3-0.4,0.5-0.5l4.1-1.4v-4.3l-4.1-1.4c-0.2-0.1-0.4-0.3-0.5-0.5c-0.2-0.7-0.5-1.4-0.9-2.1c-0.1-0.2-0.1-0.5,0-0.7l2-3.9
		l-3-3l-3.9,2c-0.2,0.1-0.5,0.1-0.7,0c-0.7-0.4-1.4-0.7-2.1-0.9c-0.2-0.1-0.4-0.3-0.5-0.5l-1.4-4.1h-4.3l-1.4,4.1
		c-0.1,0.2-0.3,0.4-0.5,0.5c-0.7,0.2-1.4,0.5-2.1,0.9c-0.2,0.1-0.5,0.1-0.7,0l-3.9-2l-3,3l2,3.9c0.1,0.2,0.1,0.5,0,0.7
		c-0.4,0.7-0.7,1.4-0.9,2.1c-0.1,0.2-0.2,0.4-0.5,0.5l-4.1,1.4v4.3l4.1,1.4c0.2,0.1,0.4,0.3,0.5,0.5c0.2,0.7,0.5,1.4,0.9,2.1
		c0.1,0.2,0.1,0.5,0,0.7l-2,3.9l3,3l3.9-2c0.2-0.1,0.5-0.1,0.7,0c0.7,0.4,1.4,0.7,2.1,0.9c0.2,0.1,0.4,0.2,0.5,0.5L-436.7,57.8z
		 M-416.5,43.2L-416.5,43.2L-416.5,43.2z"/>
	<path class="st0" d="M-411.9,29.3c-0.1,0-0.1,0-0.2,0l-3.4-0.9c-0.3-0.1-0.5-0.4-0.6-0.7l-0.2-2.9c-0.5-0.3-1-0.7-1.4-1.2
		c0,0,0,0,0,0c-0.4-0.4-0.8-0.9-1.2-1.4l-2.9-0.2c-0.3,0-0.6-0.2-0.7-0.6l-0.9-3.4c-0.1-0.3,0-0.6,0.3-0.8l2.4-1.6
		c0.1-1.2,0.4-2.4,0.9-3.5l-1.3-2.6c-0.1-0.3-0.1-0.6,0.1-0.9l2.5-2.5c0.2-0.2,0.6-0.3,0.9-0.1l2.6,1.3c1.1-0.5,2.2-0.8,3.5-0.9
		l1.6-2.4c0.2-0.3,0.5-0.4,0.8-0.3l3.4,0.9c0.3,0.1,0.5,0.4,0.6,0.7l0.2,2.9c0.5,0.3,1,0.7,1.4,1.2c0.4,0.4,0.8,0.9,1.2,1.4l2.9,0.2
		c0.3,0,0.6,0.2,0.7,0.6l0.9,3.4c0.1,0.3,0,0.6-0.3,0.8l-2.4,1.6c-0.1,1.2-0.4,2.4-0.9,3.5l1.3,2.6c0.1,0.3,0.1,0.6-0.1,0.9
		l-2.5,2.5c-0.2,0.2-0.6,0.3-0.9,0.1l-2.6-1.3c-1.1,0.5-2.2,0.8-3.5,0.9l-1.6,2.4C-411.4,29.2-411.7,29.3-411.9,29.3z M-414.6,27.1
		l2.4,0.6l1.5-2.3c0.1-0.2,0.4-0.3,0.6-0.3c1.3-0.1,2.5-0.4,3.6-0.9c0.2-0.1,0.5-0.1,0.7,0l2.4,1.2l1.8-1.7l-1.2-2.4
		c-0.1-0.2-0.1-0.5,0-0.7c0.6-1.1,0.9-2.3,0.9-3.6c0-0.2,0.1-0.5,0.3-0.6l2.3-1.5l-0.6-2.4l-2.7-0.2c-0.2,0-0.5-0.1-0.6-0.3
		c-0.3-0.5-0.7-1-1.2-1.5c-0.4-0.4-0.9-0.8-1.5-1.2c-0.2-0.1-0.3-0.3-0.3-0.6l-0.2-2.7l-2.4-0.6l-1.5,2.3c-0.1,0.2-0.4,0.3-0.6,0.3
		c-1.3,0.1-2.5,0.4-3.6,0.9c-0.2,0.1-0.5,0.1-0.7,0l-2.4-1.2l-1.7,1.7l1.2,2.4c0.1,0.2,0.1,0.5,0,0.7c-0.6,1.1-0.9,2.3-0.9,3.6
		c0,0.2-0.1,0.5-0.3,0.6l-2.3,1.5l0.6,2.4l2.7,0.2c0.2,0,0.5,0.1,0.6,0.3c0.3,0.5,0.7,1,1.2,1.5c0.4,0.4,0.9,0.8,1.5,1.2
		c0.2,0.1,0.3,0.3,0.3,0.6L-414.6,27.1z"/>
</g>
<g>
	<path class="st0" d="M-332.6,29c-0.2,0-0.4-0.1-0.5-0.2l-1.9-1.9c-0.3-0.3-0.3-0.7,0-1c0.3-0.3,0.7-0.3,1,0l1.3,1.3l3.3-5
		c0.2-0.3,0.7-0.4,1-0.2c0.3,0.2,0.4,0.7,0.2,1l-3.8,5.7C-332.1,28.9-332.3,29-332.6,29C-332.5,29-332.5,29-332.6,29z"/>
	<path class="st0" d="M-292.8,27.1h-30.3c-0.4,0-0.7-0.3-0.7-0.7c0-0.4,0.3-0.7,0.7-0.7h30.3c0.4,0,0.7,0.3,0.7,0.7
		C-292,26.8-292.4,27.1-292.8,27.1z"/>
	<path class="st0" d="M-332.6,40.4c-0.2,0-0.4-0.1-0.5-0.2l-1.9-1.9c-0.3-0.3-0.3-0.7,0-1c0.3-0.3,0.7-0.3,1,0l1.3,1.3l3.3-5
		c0.2-0.3,0.7-0.4,1-0.2c0.3,0.2,0.4,0.7,0.2,1L-332,40C-332.1,40.2-332.3,40.3-332.6,40.4C-332.5,40.4-332.5,40.4-332.6,40.4z"/>
	<path class="st0" d="M-292.8,38.5h-30.3c-0.4,0-0.7-0.3-0.7-0.7s0.3-0.7,0.7-0.7h30.3c0.4,0,0.7,0.3,0.7,0.7
		S-292.4,38.5-292.8,38.5z"/>
	<path class="st0" d="M-332.6,51.7c-0.2,0-0.4-0.1-0.5-0.2l-1.9-1.9c-0.3-0.3-0.3-0.7,0-1c0.3-0.3,0.7-0.3,1,0l1.3,1.3l3.3-5
		c0.2-0.3,0.7-0.4,1-0.2c0.3,0.2,0.4,0.7,0.2,1l-3.8,5.7C-332.1,51.6-332.3,51.7-332.6,51.7C-332.5,51.7-332.5,51.7-332.6,51.7z"/>
	<path class="st0" d="M-292.8,49.8h-30.3c-0.4,0-0.7-0.3-0.7-0.7s0.3-0.7,0.7-0.7h30.3c0.4,0,0.7,0.3,0.7,0.7
		S-292.4,49.8-292.8,49.8z"/>
</g>
<g>
	<path class="st0" d="M-309.8,58.3h-28.8c-1.5,0-2.8-1.2-2.8-2.8V8.2c0-1.5,1.2-2.8,2.8-2.8h50.3c1.5,0,2.8,1.2,2.8,2.8V37
		c0,0.4-0.3,0.7-0.7,0.7s-0.7-0.3-0.7-0.7V8.2c0-0.7-0.6-1.3-1.3-1.3h-50.3c-0.7,0-1.3,0.6-1.3,1.3v47.3c0,0.7,0.6,1.3,1.3,1.3h28.8
		c0.4,0,0.7,0.3,0.7,0.7S-309.5,58.3-309.8,58.3z"/>
	<path class="st0" d="M-286.3,17.1h-54.4c-0.4,0-0.7-0.3-0.7-0.7c0-0.4,0.3-0.7,0.7-0.7h54.4c0.4,0,0.7,0.3,0.7,0.7
		C-285.6,16.8-285.9,17.1-286.3,17.1z"/>
	<path class="st0" d="M-335.6,13c-1,0-1.7-0.8-1.7-1.7c0-1,0.8-1.7,1.7-1.7c1,0,1.7,0.8,1.7,1.7C-333.8,12.2-334.6,13-335.6,13z
		 M-335.6,10.9c-0.2,0-0.3,0.1-0.3,0.3s0.1,0.3,0.3,0.3c0.2,0,0.3-0.1,0.3-0.3S-335.4,10.9-335.6,10.9z"/>
	<path class="st0" d="M-329.4,13c-1,0-1.7-0.8-1.7-1.7c0-1,0.8-1.7,1.7-1.7s1.7,0.8,1.7,1.7C-327.7,12.2-328.4,13-329.4,13z
		 M-329.4,10.9c-0.2,0-0.3,0.1-0.3,0.3s0.1,0.3,0.3,0.3c0.2,0,0.3-0.1,0.3-0.3S-329.2,10.9-329.4,10.9z"/>
	<path class="st0" d="M-323.2,13c-1,0-1.7-0.8-1.7-1.7c0-1,0.8-1.7,1.7-1.7c1,0,1.7,0.8,1.7,1.7C-321.5,12.2-322.3,13-323.2,13z
		 M-323.2,10.9c-0.2,0-0.3,0.1-0.3,0.3s0.1,0.3,0.3,0.3c0.2,0,0.3-0.1,0.3-0.3S-323,10.9-323.2,10.9z"/>
	<path class="st0" d="M-288.3,58.3h-46.2c-0.4,0-0.7-0.3-0.7-0.7s0.3-0.7,0.7-0.7h46.2c0.7,0,1.3-0.6,1.3-1.3V26.7
		c0-0.4,0.3-0.7,0.7-0.7s0.7,0.3,0.7,0.7v28.8C-285.6,57-286.8,58.3-288.3,58.3z"/>
</g>
<g>
	<path class="st0" d="M-186,46.2h-5c-0.4,0-0.8-0.3-0.8-0.8s0.3-0.8,0.8-0.8h5c7.3,0,13.2-5.9,13.2-13.2s-5.9-13.2-13.2-13.2
		c-10.3,0-14.2,13.3-14.3,13.5c0,0.1-1.1,3.7-3.5,7.2c-3.3,4.8-7.5,7.3-12.2,7.3c-8.1,0-14.8-6.6-14.8-14.8s6.6-14.8,14.8-14.8h5
		c0.4,0,0.8,0.3,0.8,0.8s-0.3,0.8-0.8,0.8h-5c-7.3,0-13.2,5.9-13.2,13.2s5.9,13.2,13.2,13.2c10.3,0,14.2-13.3,14.3-13.5
		c0-0.1,1.1-3.7,3.5-7.2c3.3-4.8,7.5-7.3,12.2-7.3c8.1,0,14.8,6.6,14.8,14.8S-177.9,46.2-186,46.2z"/>
	<path class="st0" d="M-201,31.5"/>
	<path class="st0" d="M-217,24.2c-0.2,0-0.4-0.1-0.5-0.2c-0.3-0.3-0.3-0.8,0-1.1l5.5-5.5l-5.5-5.5c-0.3-0.3-0.3-0.8,0-1.1
		s0.8-0.3,1.1,0l6,6c0.3,0.3,0.3,0.8,0,1.1l-6,6C-216.6,24.2-216.8,24.2-217,24.2z"/>
	<path class="st0" d="M-185,52.2c-0.2,0-0.4-0.1-0.5-0.2l-6-6c-0.3-0.3-0.3-0.8,0-1.1l6-6c0.3-0.3,0.8-0.3,1.1,0s0.3,0.8,0,1.1
		l-5.5,5.5l5.5,5.5c0.3,0.3,0.3,0.8,0,1.1C-184.6,52.2-184.8,52.2-185,52.2z"/>
</g>
<g>
	<path class="st0" d="M-82.3,15.2c-0.2,0-0.4-0.1-0.5-0.2s-0.2-0.3-0.2-0.5c0-0.2,0.1-0.4,0.2-0.5c0.3-0.3,0.8-0.3,1.1,0
		c0.1,0.1,0.2,0.3,0.2,0.5c0,0.2-0.1,0.4-0.2,0.5C-82,15.2-82.2,15.2-82.3,15.2z"/>
	<path class="st0" d="M-82.3,49.2c-0.2,0-0.4-0.1-0.5-0.2s-0.2-0.3-0.2-0.5c0-0.2,0.1-0.4,0.2-0.5c0.3-0.3,0.8-0.3,1.1,0
		c0.1,0.1,0.2,0.3,0.2,0.5c0,0.2-0.1,0.4-0.2,0.5C-82,49.2-82.1,49.2-82.3,49.2z"/>
	<path class="st0" d="M-65.3,32.2c-0.2,0-0.4-0.1-0.5-0.2c-0.1-0.1-0.2-0.3-0.2-0.5c0-0.2,0.1-0.4,0.2-0.5c0.3-0.3,0.8-0.3,1.1,0
		c0.1,0.1,0.2,0.3,0.2,0.5c0,0.2-0.1,0.4-0.2,0.5C-65,32.2-65.1,32.2-65.3,32.2z"/>
	<path class="st0" d="M-99.3,32.2c-0.2,0-0.4-0.1-0.5-0.2s-0.2-0.3-0.2-0.5c0-0.2,0.1-0.4,0.2-0.5c0.3-0.3,0.8-0.3,1.1,0
		c0.1,0.1,0.2,0.3,0.2,0.5c0,0.2-0.1,0.4-0.2,0.5C-99,32.2-99.1,32.2-99.3,32.2z"/>
	<path class="st0" d="M-82.3,34.2c-1.5,0-2.8-1.2-2.8-2.8s1.2-2.8,2.8-2.8s2.8,1.2,2.8,2.8S-80.8,34.2-82.3,34.2z M-82.3,30.2
		c-0.7,0-1.2,0.6-1.2,1.2s0.6,1.2,1.2,1.2s1.2-0.6,1.2-1.2S-81.6,30.2-82.3,30.2z"/>
	<path class="st0" d="M-82.3,30.2c-0.4,0-0.8-0.3-0.8-0.8v-10c0-0.4,0.3-0.8,0.8-0.8s0.8,0.3,0.8,0.8v10
		C-81.6,29.9-81.9,30.2-82.3,30.2z"/>
	<path class="st0" d="M-71.3,32.2h-9c-0.4,0-0.8-0.3-0.8-0.8s0.3-0.8,0.8-0.8h9c0.4,0,0.8,0.3,0.8,0.8S-70.9,32.2-71.3,32.2z"/>
	<g>
		<path class="st0" d="M-82.3,57.2c-14.2,0-25.8-11.6-25.8-25.8c0-0.4,0.3-0.8,0.8-0.8s0.8,0.3,0.8,0.8c0,13.4,10.9,24.2,24.2,24.2
			s24.2-10.9,24.2-24.2S-69,7.2-82.3,7.2c-7.7,0-14.8,3.5-19.4,9.7c-0.2,0.3-0.7,0.4-1,0.1c-0.3-0.2-0.4-0.7-0.1-1.1
			C-98,9.5-90.5,5.8-82.3,5.8c14.2,0,25.8,11.6,25.8,25.8S-68.1,57.2-82.3,57.2z"/>
		<path class="st0" d="M-92.3,17.2h-10c-0.4,0-0.8-0.3-0.8-0.8v-10c0-0.4,0.3-0.8,0.8-0.8s0.8,0.3,0.8,0.8v9.2h9.2
			c0.4,0,0.8,0.3,0.8,0.8S-91.9,17.2-92.3,17.2z"/>
	</g>
</g>
<path class="st0" d="M34.6,52.3H5.1c-1.5,0-2.8-1.2-2.8-2.8v-40c0-1.5,1.2-2.8,2.8-2.8h47c1.5,0,2.8,1.2,2.8,2.8V32
	c0,0.4-0.3,0.8-0.8,0.8s-0.8-0.3-0.8-0.8V9.5c0-0.7-0.6-1.2-1.2-1.2h-47c-0.7,0-1.2,0.6-1.2,1.2v40c0,0.7,0.6,1.2,1.2,1.2h29.6
	c0.4,0,0.8,0.3,0.8,0.8S35.1,52.3,34.6,52.3z"/>
<g>
	<path class="st0" d="M47.9,58.5C47.9,58.5,47.9,58.5,47.9,58.5c-0.3,0-0.5-0.1-0.6-0.3c-0.5-0.7-1.7-1.7-3.2-2.9
		c-3.6-2.8-8.5-6.7-8.9-11.9c-0.3-3.9,2.5-6.7,5.4-7.5c2.4-0.6,5.4,0,7.4,3.2c2.2-3.2,5.2-3.7,7.5-3.1c3.2,0.9,5.4,3.9,5.2,7.4
		c-0.3,5.1-5.3,9.1-8.9,12c-1.5,1.2-2.7,2.2-3.2,2.9C48.4,58.4,48.2,58.5,47.9,58.5z M42.2,37.2c-0.4,0-0.9,0.1-1.3,0.2
		c-2.3,0.6-4.5,2.8-4.2,5.9c0.3,4.5,5,8.2,8.3,10.9c1.2,0.9,2.2,1.7,2.9,2.5c0.7-0.7,1.7-1.5,2.9-2.5c3.4-2.7,8.1-6.4,8.3-10.9
		c0.2-3.2-2-5.3-4.1-5.9c-2.6-0.7-5,0.6-6.5,3.5c-0.1,0.3-0.4,0.4-0.7,0.4c-0.3,0-0.5-0.2-0.7-0.4C46,38.1,44,37.2,42.2,37.2z"/>
</g>
<g>
	<path class="st0" d="M3.1,48.9c-0.2,0-0.4-0.1-0.5-0.2c-0.3-0.3-0.3-0.8,0-1.1l16.1-17.5c0.1-0.2,0.4-0.3,0.6-0.2
		c0.2,0,0.4,0.1,0.6,0.3l4.8,6.3c0.3,0.3,0.2,0.8-0.1,1.1c-0.3,0.3-0.8,0.2-1.1-0.1l-4.3-5.6L3.7,48.6C3.5,48.8,3.3,48.9,3.1,48.9z"
		/>
	<path class="st0" d="M13.7,52c-0.2,0-0.3,0-0.4-0.1c-0.3-0.2-0.4-0.7-0.2-1L38.7,16c0.1-0.2,0.4-0.3,0.6-0.3c0.2,0,0.5,0.1,0.6,0.3
		l10.6,16.5c0.2,0.3,0.1,0.8-0.2,1c-0.4,0.2-0.8,0.1-1-0.2l-10-15.6l-24.9,34C14.2,51.9,14,52,13.7,52z"/>
	<path class="st0" d="M30.1,29.6c-0.3,0-0.5-0.1-0.7-0.4c-0.2-0.4-0.1-0.8,0.3-1l6.1-3.5c0.3-0.2,0.7-0.1,1,0.2l2.1,2.8l2.4-2.7
		c0.2-0.3,0.6-0.3,1-0.1l5.1,3.1c0.4,0.2,0.5,0.7,0.2,1c-0.2,0.4-0.7,0.5-1,0.2L42,26.5l-2.6,2.9c-0.1,0.2-0.3,0.3-0.6,0.3
		c-0.2,0-0.4-0.1-0.6-0.3l-2.3-3l-5.5,3.2C30.4,29.6,30.3,29.6,30.1,29.6z"/>
</g>
<g>
	<path class="st0" d="M11.6,27.2c-0.1,0-0.2,0-0.3-0.1c-0.4-0.2-0.5-0.6-0.4-1l0.7-1.6c0.2-0.4,0.6-0.5,1-0.4c0.4,0.2,0.5,0.6,0.4,1
		l-0.7,1.6C12.1,27.1,11.8,27.2,11.6,27.2z"/>
	<path class="st0" d="M18,12.9c-0.1,0-0.2,0-0.3-0.1c-0.4-0.2-0.5-0.6-0.4-1l0.7-1.6c0.2-0.4,0.6-0.5,1-0.4c0.4,0.2,0.5,0.6,0.4,1
		l-0.7,1.6C18.5,12.7,18.3,12.9,18,12.9z"/>
	<path class="st0" d="M8.7,16.4c-0.1,0-0.2,0-0.3-0.1l-1.6-0.7c-0.4-0.2-0.5-0.6-0.4-1c0.2-0.4,0.6-0.5,1-0.4L9,15
		c0.4,0.2,0.5,0.6,0.4,1C9.3,16.2,9,16.4,8.7,16.4z"/>
	<path class="st0" d="M23.1,22.8c-0.1,0-0.2,0-0.3-0.1L21.2,22c-0.4-0.2-0.5-0.6-0.4-1c0.2-0.4,0.6-0.5,1-0.4l1.6,0.7
		c0.4,0.2,0.5,0.6,0.4,1C23.7,22.7,23.4,22.8,23.1,22.8z"/>
	<path class="st0" d="M7,22.4c-0.3,0-0.6-0.2-0.7-0.5c-0.1-0.4,0-0.8,0.4-1l1.6-0.6c0.4-0.1,0.8,0,1,0.4c0.1,0.4,0,0.8-0.4,1
		l-1.6,0.6C7.1,22.4,7,22.4,7,22.4z"/>
	<path class="st0" d="M21.7,16.8c-0.3,0-0.6-0.2-0.7-0.5c-0.1-0.4,0-0.8,0.4-1l1.6-0.6c0.4-0.1,0.8,0,1,0.4c0.1,0.4,0,0.8-0.4,1
		l-1.6,0.6C21.8,16.7,21.8,16.8,21.7,16.8z"/>
	<path class="st0" d="M12.6,12.7c-0.3,0-0.6-0.2-0.7-0.5l-0.6-1.6c-0.1-0.4,0-0.8,0.4-1s0.8,0,1,0.4l0.6,1.6c0.1,0.4,0,0.8-0.4,1
		C12.8,12.7,12.7,12.7,12.6,12.7z"/>
	<path class="st0" d="M18.2,27.4c-0.3,0-0.6-0.2-0.7-0.5l-0.6-1.6c-0.1-0.4,0-0.8,0.4-1c0.4-0.1,0.8,0,1,0.4l0.6,1.6
		c0.1,0.4,0,0.8-0.4,1C18.4,27.4,18.3,27.4,18.2,27.4z"/>
	<path class="st0" d="M15.1,22.8c-0.6,0-1.2-0.1-1.7-0.4c-1-0.5-1.8-1.3-2.2-2.4c-0.4-1.1-0.4-2.2,0.1-3.3c1-2.1,3.5-3.1,5.6-2.1
		c1,0.5,1.8,1.3,2.2,2.4c0.4,1.1,0.4,2.2-0.1,3.3c-0.5,1-1.3,1.8-2.4,2.2C16.1,22.7,15.6,22.8,15.1,22.8z M15.1,15.8
		c-1.1,0-2.1,0.6-2.5,1.6c-0.3,0.7-0.3,1.4-0.1,2.1c0.3,0.7,0.8,1.2,1.4,1.5c0.7,0.3,1.4,0.3,2.1,0.1c0.7-0.3,1.2-0.8,1.5-1.4
		s0.3-1.4,0.1-2.1c-0.3-0.7-0.8-1.2-1.4-1.5C15.9,15.8,15.5,15.8,15.1,15.8z"/>
</g>
</svg>
