<?xml version="1.0" encoding="utf-8"?>
<!-- Generator: Adobe Illustrator 19.2.0, SVG Export Plug-In . SVG Version: 6.00 Build 0)  -->
<svg version="1.1" id="Layer_1" xmlns="http://www.w3.org/2000/svg" xmlns:xlink="http://www.w3.org/1999/xlink" x="0px" y="0px"
	 viewBox="0 0 63 63" style="enable-background:new 0 0 63 63;" xml:space="preserve">
<style type="text/css">
	.st0{fill:#02868B;}
</style>
<g>
	<path class="st0" d="M-160.4,56.6h-44c-1.4,0-2.6-1.2-2.6-2.6V26c0-1.4,1.2-2.6,2.6-2.6h44c1.4,0,2.6,1.2,2.6,2.6v28
		C-157.8,55.4-158.9,56.6-160.4,56.6z M-204.4,24.6c-0.8,0-1.4,0.6-1.4,1.4v28c0,0.8,0.6,1.4,1.4,1.4h44c0.8,0,1.4-0.6,1.4-1.4V26
		c0-0.8-0.6-1.4-1.4-1.4H-204.4z"/>
	<path class="st0" d="M-197.4,34.6h-4c-0.9,0-1.6-0.7-1.6-1.6v-4c0-0.9,0.7-1.6,1.6-1.6h4c0.9,0,1.6,0.7,1.6,1.6v4
		C-195.8,33.9-196.5,34.6-197.4,34.6z M-201.4,28.6c-0.2,0-0.4,0.2-0.4,0.4v4c0,0.2,0.2,0.4,0.4,0.4h4c0.2,0,0.4-0.2,0.4-0.4v-4
		c0-0.2-0.2-0.4-0.4-0.4H-201.4z"/>
	<path class="st0" d="M-166.4,52.6c-1.1,0-2.2-0.4-3-1.1c-0.8,0.7-1.9,1.1-3,1.1c-2.5,0-4.6-2.1-4.6-4.6s2.1-4.6,4.6-4.6
		c1.1,0,2.2,0.4,3,1.1c0.8-0.7,1.9-1.1,3-1.1c2.5,0,4.6,2.1,4.6,4.6S-163.8,52.6-166.4,52.6z M-169.4,50c0.2,0,0.4,0.1,0.5,0.2
		c0.6,0.7,1.6,1.2,2.5,1.2c1.9,0,3.4-1.5,3.4-3.4s-1.5-3.4-3.4-3.4c-1,0-1.9,0.4-2.5,1.2c-0.2,0.3-0.7,0.3-0.9,0
		c-0.6-0.7-1.6-1.2-2.5-1.2c-1.9,0-3.4,1.5-3.4,3.4s1.5,3.4,3.4,3.4c1,0,1.9-0.4,2.5-1.2C-169.7,50.1-169.6,50-169.4,50z"/>
	<path class="st0" d="M-182.4,52.6h-18c-0.3,0-0.6-0.3-0.6-0.6s0.3-0.6,0.6-0.6h18c0.3,0,0.6,0.3,0.6,0.6S-182,52.6-182.4,52.6z"/>
	<path class="st0" d="M-196.4,48.6h-4c-0.3,0-0.6-0.3-0.6-0.6s0.3-0.6,0.6-0.6h4c0.3,0,0.6,0.3,0.6,0.6S-196,48.6-196.4,48.6z"/>
	<path class="st0" d="M-200.4,40.6c-0.3,0-0.6-0.3-0.6-0.6v-1c0-0.3,0.3-0.6,0.6-0.6s0.6,0.3,0.6,0.6v1
		C-199.8,40.3-200,40.6-200.4,40.6z"/>
	<path class="st0" d="M-196.4,40.6c-0.3,0-0.6-0.3-0.6-0.6v-1c0-0.3,0.3-0.6,0.6-0.6s0.6,0.3,0.6,0.6v1
		C-195.8,40.3-196,40.6-196.4,40.6z"/>
	<path class="st0" d="M-192.4,40.6c-0.3,0-0.6-0.3-0.6-0.6v-1c0-0.3,0.3-0.6,0.6-0.6s0.6,0.3,0.6,0.6v1
		C-191.8,40.3-192,40.6-192.4,40.6z"/>
	<path class="st0" d="M-180.4,40.6c-0.3,0-0.6-0.3-0.6-0.6v-1c0-0.3,0.3-0.6,0.6-0.6s0.6,0.3,0.6,0.6v1
		C-179.8,40.3-180,40.6-180.4,40.6z"/>
	<path class="st0" d="M-168.4,40.6c-0.3,0-0.6-0.3-0.6-0.6v-1c0-0.3,0.3-0.6,0.6-0.6s0.6,0.3,0.6,0.6v1
		C-167.8,40.3-168,40.6-168.4,40.6z"/>
	<path class="st0" d="M-188.4,40.6c-0.3,0-0.6-0.3-0.6-0.6v-1c0-0.3,0.3-0.6,0.6-0.6s0.6,0.3,0.6,0.6v1
		C-187.8,40.3-188,40.6-188.4,40.6z"/>
	<path class="st0" d="M-184.4,40.6c-0.3,0-0.6-0.3-0.6-0.6v-1c0-0.3,0.3-0.6,0.6-0.6s0.6,0.3,0.6,0.6v1
		C-183.8,40.3-184,40.6-184.4,40.6z"/>
	<path class="st0" d="M-176.4,40.6c-0.3,0-0.6-0.3-0.6-0.6v-1c0-0.3,0.3-0.6,0.6-0.6s0.6,0.3,0.6,0.6v1
		C-175.8,40.3-176,40.6-176.4,40.6z"/>
	<path class="st0" d="M-172.4,40.6c-0.3,0-0.6-0.3-0.6-0.6v-1c0-0.3,0.3-0.6,0.6-0.6s0.6,0.3,0.6,0.6v1
		C-171.8,40.3-172,40.6-172.4,40.6z"/>
	<path class="st0" d="M-164.4,40.6c-0.3,0-0.6-0.3-0.6-0.6v-1c0-0.3,0.3-0.6,0.6-0.6s0.6,0.3,0.6,0.6v1
		C-163.8,40.3-164,40.6-164.4,40.6z"/>
	<path class="st0" d="M-188.4,48.6h-4c-0.3,0-0.6-0.3-0.6-0.6s0.3-0.6,0.6-0.6h4c0.3,0,0.6,0.3,0.6,0.6S-188,48.6-188.4,48.6z"/>
	<path class="st0" d="M-206.4,38.6h-8c-1.4,0-2.6-1.2-2.6-2.6V8c0-1.4,1.2-2.6,2.6-2.6h44c1.4,0,2.6,1.2,2.6,2.6v16
		c0,0.3-0.3,0.6-0.6,0.6h-36c-0.8,0-1.4,0.6-1.4,1.4v12C-205.8,38.3-206,38.6-206.4,38.6z M-214.4,6.6c-0.8,0-1.4,0.6-1.4,1.4v28
		c0,0.8,0.6,1.4,1.4,1.4h7.4V26c0-1.4,1.2-2.6,2.6-2.6h35.4V8c0-0.8-0.6-1.4-1.4-1.4H-214.4z"/>
	<path class="st0" d="M-168.4,18.6h-48c-0.3,0-0.6-0.3-0.6-0.6v-6c0-0.3,0.3-0.6,0.6-0.6h48c0.3,0,0.6,0.3,0.6,0.6v6
		C-167.8,18.3-168,18.6-168.4,18.6z M-215.8,17.4h46.8v-4.8h-46.8V17.4z"/>
	<path class="st0" d="M-216.4,18.6c-0.2,0-0.3-0.1-0.4-0.2c-0.2-0.2-0.2-0.6,0-0.9l6-6c0.2-0.2,0.6-0.2,0.9,0s0.2,0.6,0,0.9l-6,6
		C-216.1,18.6-216.2,18.6-216.4,18.6z"/>
	<path class="st0" d="M-210.4,18.6c-0.2,0-0.3-0.1-0.4-0.2c-0.2-0.2-0.2-0.6,0-0.9l6-6c0.2-0.2,0.6-0.2,0.9,0s0.2,0.6,0,0.9l-6,6
		C-210.1,18.6-210.2,18.6-210.4,18.6z"/>
	<path class="st0" d="M-204.4,18.6c-0.2,0-0.3-0.1-0.4-0.2c-0.2-0.2-0.2-0.6,0-0.9l6-6c0.2-0.2,0.6-0.2,0.9,0s0.2,0.6,0,0.9l-6,6
		C-204.1,18.6-204.2,18.6-204.4,18.6z"/>
	<path class="st0" d="M-198.4,18.6c-0.2,0-0.3-0.1-0.4-0.2c-0.2-0.2-0.2-0.6,0-0.9l6-6c0.2-0.2,0.6-0.2,0.9,0s0.2,0.6,0,0.9l-6,6
		C-198.1,18.6-198.2,18.6-198.4,18.6z"/>
	<path class="st0" d="M-192.4,18.6c-0.2,0-0.3-0.1-0.4-0.2c-0.2-0.2-0.2-0.6,0-0.9l6-6c0.2-0.2,0.6-0.2,0.9,0c0.2,0.2,0.2,0.6,0,0.9
		l-6,6C-192.1,18.6-192.2,18.6-192.4,18.6z"/>
	<path class="st0" d="M-186.4,18.6c-0.2,0-0.3-0.1-0.4-0.2c-0.2-0.2-0.2-0.6,0-0.9l6-6c0.2-0.2,0.6-0.2,0.9,0c0.2,0.2,0.2,0.6,0,0.9
		l-6,6C-186.1,18.6-186.2,18.6-186.4,18.6z"/>
	<path class="st0" d="M-180.4,18.6c-0.2,0-0.3-0.1-0.4-0.2c-0.2-0.2-0.2-0.6,0-0.9l6-6c0.2-0.2,0.6-0.2,0.9,0c0.2,0.2,0.2,0.6,0,0.9
		l-6,6C-180.1,18.6-180.2,18.6-180.4,18.6z"/>
	<path class="st0" d="M-174.4,18.6c-0.2,0-0.3-0.1-0.4-0.2c-0.2-0.2-0.2-0.6,0-0.9l6-6c0.2-0.2,0.6-0.2,0.9,0c0.2,0.2,0.2,0.6,0,0.9
		l-6,6C-174.1,18.6-174.2,18.6-174.4,18.6z"/>
</g>
<g>
	<path class="st0" d="M-89.5,49.3c-4.8,0-8.8-3.9-8.8-8.8s3.9-8.8,8.8-8.8s8.8,3.9,8.8,8.8S-84.7,49.3-89.5,49.3z M-89.5,33.3
		c-4,0-7.2,3.3-7.2,7.2s3.3,7.2,7.2,7.2s7.2-3.3,7.2-7.2S-85.5,33.3-89.5,33.3z"/>
	<path class="st0" d="M-89.5,45.3c-2.6,0-4.8-2.1-4.8-4.8s2.1-4.8,4.8-4.8s4.8,2.1,4.8,4.8S-86.9,45.3-89.5,45.3z M-89.5,37.3
		c-1.8,0-3.2,1.5-3.2,3.2s1.5,3.2,3.2,3.2s3.2-1.5,3.2-3.2S-87.7,37.3-89.5,37.3z"/>
	<path class="st0" d="M-65.5,21.3c-1.2,0-2.4-0.5-3.4-1.4c-1.9-1.9-1.9-4.9,0-6.7c1.9-1.9,4.9-1.9,6.7,0c0.9,0.9,1.4,2.1,1.4,3.4
		c0,1.3-0.5,2.5-1.4,3.4C-63.1,20.8-64.3,21.3-65.5,21.3z M-65.5,13.3c-0.8,0-1.7,0.3-2.3,1c-1.3,1.3-1.3,3.3,0,4.6
		c1.3,1.3,3.3,1.3,4.6,0c0.6-0.6,1-1.4,1-2.3c0-0.9-0.3-1.7-1-2.3C-63.9,13.6-64.7,13.3-65.5,13.3z"/>
	<path class="st0" d="M-86.9,59.3h-5.3c-0.3,0-0.6-0.2-0.7-0.5l-1.4-4.3c-0.5-0.2-1.1-0.4-1.6-0.7l-4.1,2c-0.3,0.1-0.6,0.1-0.9-0.1
		l-3.8-3.8c-0.2-0.2-0.3-0.6-0.1-0.9l2-4.1c-0.3-0.5-0.5-1.1-0.7-1.6l-4.3-1.4c-0.3-0.1-0.5-0.4-0.5-0.7v-5.3c0-0.3,0.2-0.6,0.5-0.7
		l4.3-1.4c0.2-0.5,0.4-1.1,0.7-1.6l-2-4.1c-0.1-0.3-0.1-0.6,0.1-0.9l3.8-3.8c0.2-0.2,0.6-0.3,0.9-0.1l4.1,2c0.5-0.3,1.1-0.5,1.6-0.7
		l1.4-4.3c0.1-0.3,0.4-0.5,0.7-0.5h5.3c0.3,0,0.6,0.2,0.7,0.5l1.4,4.3c0.5,0.2,1.1,0.4,1.6,0.7l4.1-2c0.3-0.1,0.6-0.1,0.9,0.1
		l3.8,3.8c0.2,0.2,0.3,0.6,0.1,0.9l-2,4.1c0.3,0.5,0.5,1.1,0.7,1.6l4.3,1.4c0.3,0.1,0.5,0.4,0.5,0.7v5.3c0,0.3-0.2,0.6-0.5,0.7
		l-4.3,1.4c-0.2,0.5-0.4,1.1-0.7,1.6l2,4.1c0.1,0.3,0.1,0.6-0.1,0.9l-3.8,3.8c-0.2,0.2-0.6,0.3-0.9,0.1l-4.1-2
		c-0.5,0.3-1.1,0.5-1.6,0.7l-1.4,4.3C-86.2,59.1-86.5,59.3-86.9,59.3z M-91.7,57.8h4.3l1.4-4.1c0.1-0.2,0.3-0.4,0.5-0.5
		c0.7-0.2,1.4-0.5,2.1-0.9c0.2-0.1,0.5-0.1,0.7,0l3.9,2l3-3l-2-3.9c-0.1-0.2-0.1-0.5,0-0.7c0.4-0.7,0.7-1.4,0.9-2.1
		c0.1-0.2,0.3-0.4,0.5-0.5l4.1-1.4v-4.3l-4.1-1.4c-0.2-0.1-0.4-0.3-0.5-0.5c-0.2-0.7-0.5-1.4-0.9-2.1c-0.1-0.2-0.1-0.5,0-0.7l2-3.9
		l-3-3l-3.9,2c-0.2,0.1-0.5,0.1-0.7,0c-0.7-0.4-1.4-0.7-2.1-0.9c-0.2-0.1-0.4-0.3-0.5-0.5l-1.4-4.1h-4.3l-1.4,4.1
		c-0.1,0.2-0.3,0.4-0.5,0.5c-0.7,0.2-1.4,0.5-2.1,0.9c-0.2,0.1-0.5,0.1-0.7,0l-3.9-2l-3,3l2,3.9c0.1,0.2,0.1,0.5,0,0.7
		c-0.4,0.7-0.7,1.4-0.9,2.1c-0.1,0.2-0.2,0.4-0.5,0.5l-4.1,1.4v4.3l4.1,1.4c0.2,0.1,0.4,0.3,0.5,0.5c0.2,0.7,0.5,1.4,0.9,2.1
		c0.1,0.2,0.1,0.5,0,0.7l-2,3.9l3,3l3.9-2c0.2-0.1,0.5-0.1,0.7,0c0.7,0.4,1.4,0.7,2.1,0.9c0.2,0.1,0.4,0.2,0.5,0.5L-91.7,57.8z
		 M-71.5,43.2L-71.5,43.2L-71.5,43.2z"/>
	<path class="st0" d="M-66.9,29.3c-0.1,0-0.1,0-0.2,0l-3.4-0.9c-0.3-0.1-0.5-0.4-0.6-0.7l-0.2-2.9c-0.5-0.3-1-0.7-1.4-1.2
		c0,0,0,0,0,0c-0.4-0.4-0.8-0.9-1.2-1.4l-2.9-0.2c-0.3,0-0.6-0.2-0.7-0.6l-0.9-3.4c-0.1-0.3,0-0.6,0.3-0.8l2.4-1.6
		c0.1-1.2,0.4-2.4,0.9-3.5l-1.3-2.6C-76.1,9.3-76,9-75.8,8.8l2.5-2.5c0.2-0.2,0.6-0.3,0.9-0.1l2.6,1.3c1.1-0.5,2.2-0.8,3.5-0.9
		l1.6-2.4c0.2-0.3,0.5-0.4,0.8-0.3l3.4,0.9C-60.2,4.8-60,5-60,5.3l0.2,2.9c0.5,0.3,1,0.7,1.4,1.2c0.4,0.4,0.8,0.9,1.2,1.4l2.9,0.2
		c0.3,0,0.6,0.2,0.7,0.6l0.9,3.4c0.1,0.3,0,0.6-0.3,0.8l-2.4,1.6c-0.1,1.2-0.4,2.4-0.9,3.5l1.3,2.6c0.1,0.3,0.1,0.6-0.1,0.9
		l-2.5,2.5c-0.2,0.2-0.6,0.3-0.9,0.1l-2.6-1.3c-1.1,0.5-2.2,0.8-3.5,0.9l-1.6,2.4C-66.4,29.2-66.7,29.3-66.9,29.3z M-69.6,27.1
		l2.4,0.6l1.5-2.3c0.1-0.2,0.4-0.3,0.6-0.3c1.3-0.1,2.5-0.4,3.6-0.9c0.2-0.1,0.5-0.1,0.7,0l2.4,1.2l1.8-1.7l-1.2-2.4
		c-0.1-0.2-0.1-0.5,0-0.7c0.6-1.1,0.9-2.3,0.9-3.6c0-0.2,0.1-0.5,0.3-0.6l2.3-1.5l-0.6-2.4l-2.7-0.2c-0.2,0-0.5-0.1-0.6-0.3
		c-0.3-0.5-0.7-1-1.2-1.5c-0.4-0.4-0.9-0.8-1.5-1.2c-0.2-0.1-0.3-0.3-0.3-0.6L-61.4,6l-2.4-0.6l-1.5,2.3C-65.5,7.8-65.7,8-65.9,8
		c-1.3,0.1-2.5,0.4-3.6,0.9C-69.7,9-70,9-70.2,8.9l-2.4-1.2l-1.7,1.7l1.2,2.4c0.1,0.2,0.1,0.5,0,0.7c-0.6,1.1-0.9,2.3-0.9,3.6
		c0,0.2-0.1,0.5-0.3,0.6l-2.3,1.5l0.6,2.4l2.7,0.2c0.2,0,0.5,0.1,0.6,0.3c0.3,0.5,0.7,1,1.2,1.5c0.4,0.4,0.9,0.8,1.5,1.2
		c0.2,0.1,0.3,0.3,0.3,0.6L-69.6,27.1z"/>
</g>
<g>
	<path class="st0" d="M12.4,29c-0.2,0-0.4-0.1-0.5-0.2L10,26.9c-0.3-0.3-0.3-0.7,0-1c0.3-0.3,0.7-0.3,1,0l1.3,1.3l3.3-5
		c0.2-0.3,0.7-0.4,1-0.2c0.3,0.2,0.4,0.7,0.2,1L13,28.7C12.9,28.9,12.7,29,12.4,29C12.5,29,12.5,29,12.4,29z"/>
	<path class="st0" d="M52.2,27.1H21.9c-0.4,0-0.7-0.3-0.7-0.7c0-0.4,0.3-0.7,0.7-0.7h30.3c0.4,0,0.7,0.3,0.7,0.7
		C53,26.8,52.6,27.1,52.2,27.1z"/>
	<path class="st0" d="M12.4,40.4c-0.2,0-0.4-0.1-0.5-0.2L10,38.3c-0.3-0.3-0.3-0.7,0-1c0.3-0.3,0.7-0.3,1,0l1.3,1.3l3.3-5
		c0.2-0.3,0.7-0.4,1-0.2c0.3,0.2,0.4,0.7,0.2,1L13,40C12.9,40.2,12.7,40.3,12.4,40.4C12.5,40.4,12.5,40.4,12.4,40.4z"/>
	<path class="st0" d="M52.2,38.5H21.9c-0.4,0-0.7-0.3-0.7-0.7s0.3-0.7,0.7-0.7h30.3c0.4,0,0.7,0.3,0.7,0.7S52.6,38.5,52.2,38.5z"/>
	<path class="st0" d="M12.4,51.7c-0.2,0-0.4-0.1-0.5-0.2L10,49.6c-0.3-0.3-0.3-0.7,0-1c0.3-0.3,0.7-0.3,1,0l1.3,1.3l3.3-5
		c0.2-0.3,0.7-0.4,1-0.2c0.3,0.2,0.4,0.7,0.2,1L13,51.4C12.9,51.6,12.7,51.7,12.4,51.7C12.5,51.7,12.5,51.7,12.4,51.7z"/>
	<path class="st0" d="M52.2,49.8H21.9c-0.4,0-0.7-0.3-0.7-0.7s0.3-0.7,0.7-0.7h30.3c0.4,0,0.7,0.3,0.7,0.7S52.6,49.8,52.2,49.8z"/>
</g>
<g>
	<path class="st0" d="M35.2,58.3H6.3c-1.5,0-2.8-1.2-2.8-2.8V8.2c0-1.5,1.2-2.8,2.8-2.8h50.3c1.5,0,2.8,1.2,2.8,2.8V37
		c0,0.4-0.3,0.7-0.7,0.7S58,37.4,58,37V8.2c0-0.7-0.6-1.3-1.3-1.3H6.3C5.6,6.8,5,7.4,5,8.2v47.3c0,0.7,0.6,1.3,1.3,1.3h28.8
		c0.4,0,0.7,0.3,0.7,0.7S35.5,58.3,35.2,58.3z"/>
	<path class="st0" d="M58.7,17.1H4.3c-0.4,0-0.7-0.3-0.7-0.7c0-0.4,0.3-0.7,0.7-0.7h54.4c0.4,0,0.7,0.3,0.7,0.7
		C59.4,16.8,59.1,17.1,58.7,17.1z"/>
	<path class="st0" d="M9.4,13c-1,0-1.7-0.8-1.7-1.7c0-1,0.8-1.7,1.7-1.7s1.7,0.8,1.7,1.7C11.2,12.2,10.4,13,9.4,13z M9.4,10.9
		c-0.2,0-0.3,0.1-0.3,0.3s0.1,0.3,0.3,0.3c0.2,0,0.3-0.1,0.3-0.3S9.6,10.9,9.4,10.9z"/>
	<path class="st0" d="M15.6,13c-1,0-1.7-0.8-1.7-1.7c0-1,0.8-1.7,1.7-1.7s1.7,0.8,1.7,1.7C17.3,12.2,16.6,13,15.6,13z M15.6,10.9
		c-0.2,0-0.3,0.1-0.3,0.3s0.1,0.3,0.3,0.3c0.2,0,0.3-0.1,0.3-0.3S15.8,10.9,15.6,10.9z"/>
	<path class="st0" d="M21.8,13c-1,0-1.7-0.8-1.7-1.7c0-1,0.8-1.7,1.7-1.7s1.7,0.8,1.7,1.7C23.5,12.2,22.7,13,21.8,13z M21.8,10.9
		c-0.2,0-0.3,0.1-0.3,0.3s0.1,0.3,0.3,0.3c0.2,0,0.3-0.1,0.3-0.3S22,10.9,21.8,10.9z"/>
	<path class="st0" d="M56.7,58.3H10.5c-0.4,0-0.7-0.3-0.7-0.7s0.3-0.7,0.7-0.7h46.2c0.7,0,1.3-0.6,1.3-1.3V26.7
		c0-0.4,0.3-0.7,0.7-0.7c0.4,0,0.7,0.3,0.7,0.7v28.8C59.4,57,58.2,58.3,56.7,58.3z"/>
</g>
<g>
	<path class="st0" d="M159,46.2h-5c-0.4,0-0.8-0.3-0.8-0.8s0.3-0.8,0.8-0.8h5c7.3,0,13.2-5.9,13.2-13.2s-5.9-13.2-13.2-13.2
		c-10.3,0-14.2,13.3-14.3,13.5c0,0.1-1.1,3.7-3.5,7.2c-3.3,4.8-7.5,7.3-12.2,7.3c-8.1,0-14.8-6.6-14.8-14.8s6.6-14.8,14.8-14.8h5
		c0.4,0,0.8,0.3,0.8,0.8s-0.3,0.8-0.8,0.8h-5c-7.3,0-13.2,5.9-13.2,13.2s5.9,13.2,13.2,13.2c10.3,0,14.2-13.3,14.3-13.5
		c0-0.1,1.1-3.7,3.5-7.2c3.3-4.8,7.5-7.3,12.2-7.3c8.1,0,14.8,6.6,14.8,14.8S167.1,46.2,159,46.2z"/>
	<path class="st0" d="M144,31.5"/>
	<path class="st0" d="M128,24.2c-0.2,0-0.4-0.1-0.5-0.2c-0.3-0.3-0.3-0.8,0-1.1l5.5-5.5l-5.5-5.5c-0.3-0.3-0.3-0.8,0-1.1
		s0.8-0.3,1.1,0l6,6c0.3,0.3,0.3,0.8,0,1.1l-6,6C128.4,24.2,128.2,24.2,128,24.2z"/>
	<path class="st0" d="M160,52.2c-0.2,0-0.4-0.1-0.5-0.2l-6-6c-0.3-0.3-0.3-0.8,0-1.1l6-6c0.3-0.3,0.8-0.3,1.1,0s0.3,0.8,0,1.1
		l-5.5,5.5l5.5,5.5c0.3,0.3,0.3,0.8,0,1.1C160.4,52.2,160.2,52.2,160,52.2z"/>
</g>
<g>
	<path class="st0" d="M262.7,15.2c-0.2,0-0.4-0.1-0.5-0.2s-0.2-0.3-0.2-0.5c0-0.2,0.1-0.4,0.2-0.5c0.3-0.3,0.8-0.3,1.1,0
		c0.1,0.1,0.2,0.3,0.2,0.5c0,0.2-0.1,0.4-0.2,0.5C263,15.2,262.8,15.2,262.7,15.2z"/>
	<path class="st0" d="M262.7,49.2c-0.2,0-0.4-0.1-0.5-0.2s-0.2-0.3-0.2-0.5c0-0.2,0.1-0.4,0.2-0.5c0.3-0.3,0.8-0.3,1.1,0
		c0.1,0.1,0.2,0.3,0.2,0.5c0,0.2-0.1,0.4-0.2,0.5C263,49.2,262.9,49.2,262.7,49.2z"/>
	<path class="st0" d="M279.7,32.2c-0.2,0-0.4-0.1-0.5-0.2c-0.1-0.1-0.2-0.3-0.2-0.5c0-0.2,0.1-0.4,0.2-0.5c0.3-0.3,0.8-0.3,1.1,0
		c0.1,0.1,0.2,0.3,0.2,0.5c0,0.2-0.1,0.4-0.2,0.5C280,32.2,279.9,32.2,279.7,32.2z"/>
	<path class="st0" d="M245.7,32.2c-0.2,0-0.4-0.1-0.5-0.2s-0.2-0.3-0.2-0.5c0-0.2,0.1-0.4,0.2-0.5c0.3-0.3,0.8-0.3,1.1,0
		c0.1,0.1,0.2,0.3,0.2,0.5c0,0.2-0.1,0.4-0.2,0.5C246,32.2,245.9,32.2,245.7,32.2z"/>
	<path class="st0" d="M262.7,34.2c-1.5,0-2.8-1.2-2.8-2.8s1.2-2.8,2.8-2.8s2.8,1.2,2.8,2.8S264.2,34.2,262.7,34.2z M262.7,30.2
		c-0.7,0-1.2,0.6-1.2,1.2s0.6,1.2,1.2,1.2s1.2-0.6,1.2-1.2S263.4,30.2,262.7,30.2z"/>
	<path class="st0" d="M262.7,30.2c-0.4,0-0.8-0.3-0.8-0.8v-10c0-0.4,0.3-0.8,0.8-0.8s0.8,0.3,0.8,0.8v10
		C263.4,29.9,263.1,30.2,262.7,30.2z"/>
	<path class="st0" d="M273.7,32.2h-9c-0.4,0-0.8-0.3-0.8-0.8s0.3-0.8,0.8-0.8h9c0.4,0,0.8,0.3,0.8,0.8S274.1,32.2,273.7,32.2z"/>
	<g>
		<path class="st0" d="M262.7,57.2c-14.2,0-25.8-11.6-25.8-25.8c0-0.4,0.3-0.8,0.8-0.8s0.8,0.3,0.8,0.8c0,13.4,10.9,24.2,24.2,24.2
			s24.2-10.9,24.2-24.2S276,7.2,262.7,7.2c-7.7,0-14.8,3.5-19.4,9.7c-0.2,0.3-0.7,0.4-1,0.1c-0.3-0.2-0.4-0.7-0.1-1.1
			c4.9-6.5,12.4-10.3,20.6-10.3c14.2,0,25.8,11.6,25.8,25.8S276.9,57.2,262.7,57.2z"/>
		<path class="st0" d="M252.7,17.2h-10c-0.4,0-0.8-0.3-0.8-0.8v-10c0-0.4,0.3-0.8,0.8-0.8s0.8,0.3,0.8,0.8v9.2h9.2
			c0.4,0,0.8,0.3,0.8,0.8S253.1,17.2,252.7,17.2z"/>
	</g>
</g>
<path class="st0" d="M379.6,52.3h-29.6c-1.5,0-2.8-1.2-2.8-2.8v-40c0-1.5,1.2-2.8,2.8-2.8h47c1.5,0,2.8,1.2,2.8,2.8V32
	c0,0.4-0.3,0.8-0.8,0.8s-0.8-0.3-0.8-0.8V9.5c0-0.7-0.6-1.2-1.2-1.2h-47c-0.7,0-1.2,0.6-1.2,1.2v40c0,0.7,0.6,1.2,1.2,1.2h29.6
	c0.4,0,0.8,0.3,0.8,0.8S380.1,52.3,379.6,52.3z"/>
<g>
	<path class="st0" d="M392.9,58.5C392.9,58.5,392.9,58.5,392.9,58.5c-0.3,0-0.5-0.1-0.6-0.3c-0.5-0.7-1.7-1.7-3.2-2.9
		c-3.6-2.8-8.5-6.7-8.9-11.9c-0.3-3.9,2.5-6.7,5.4-7.5c2.4-0.6,5.4,0,7.4,3.2c2.2-3.2,5.2-3.7,7.5-3.1c3.2,0.9,5.4,3.9,5.2,7.4
		c-0.3,5.1-5.3,9.1-8.9,12c-1.5,1.2-2.7,2.2-3.2,2.9C393.4,58.4,393.2,58.5,392.9,58.5z M387.2,37.2c-0.4,0-0.9,0.1-1.3,0.2
		c-2.3,0.6-4.5,2.8-4.2,5.9c0.3,4.5,5,8.2,8.3,10.9c1.2,0.9,2.2,1.7,2.9,2.5c0.7-0.7,1.7-1.5,2.9-2.5c3.4-2.7,8.1-6.4,8.3-10.9
		c0.2-3.2-2-5.3-4.1-5.9c-2.6-0.7-5,0.6-6.5,3.5c-0.1,0.3-0.4,0.4-0.7,0.4c-0.3,0-0.5-0.2-0.7-0.4C391,38.1,389,37.2,387.2,37.2z"/>
</g>
<g>
	<path class="st0" d="M348.1,48.9c-0.2,0-0.4-0.1-0.5-0.2c-0.3-0.3-0.3-0.8,0-1.1l16.1-17.5c0.1-0.2,0.4-0.3,0.6-0.2
		c0.2,0,0.4,0.1,0.6,0.3l4.8,6.3c0.3,0.3,0.2,0.8-0.1,1.1c-0.3,0.3-0.8,0.2-1.1-0.1l-4.3-5.6l-15.5,16.9
		C348.5,48.8,348.3,48.9,348.1,48.9z"/>
	<path class="st0" d="M358.7,52c-0.2,0-0.3,0-0.4-0.1c-0.3-0.2-0.4-0.7-0.2-1L383.7,16c0.1-0.2,0.4-0.3,0.6-0.3
		c0.2,0,0.5,0.1,0.6,0.3l10.6,16.5c0.2,0.3,0.1,0.8-0.2,1c-0.4,0.2-0.8,0.1-1-0.2l-10-15.6l-24.9,34C359.2,51.9,359,52,358.7,52z"/>
	<path class="st0" d="M375.1,29.6c-0.3,0-0.5-0.1-0.7-0.4c-0.2-0.4-0.1-0.8,0.3-1l6.1-3.5c0.3-0.2,0.7-0.1,1,0.2l2.1,2.8l2.4-2.7
		c0.2-0.3,0.6-0.3,1-0.1l5.1,3.1c0.4,0.2,0.5,0.7,0.2,1c-0.2,0.4-0.7,0.5-1,0.2l-4.5-2.8l-2.6,2.9c-0.1,0.2-0.3,0.3-0.6,0.3
		c-0.2,0-0.4-0.1-0.6-0.3l-2.3-3l-5.5,3.2C375.4,29.6,375.3,29.6,375.1,29.6z"/>
</g>
<g>
	<path class="st0" d="M356.6,27.2c-0.1,0-0.2,0-0.3-0.1c-0.4-0.2-0.5-0.6-0.4-1l0.7-1.6c0.2-0.4,0.6-0.5,1-0.4
		c0.4,0.2,0.5,0.6,0.4,1l-0.7,1.6C357.1,27.1,356.8,27.2,356.6,27.2z"/>
	<path class="st0" d="M363,12.9c-0.1,0-0.2,0-0.3-0.1c-0.4-0.2-0.5-0.6-0.4-1l0.7-1.6c0.2-0.4,0.6-0.5,1-0.4c0.4,0.2,0.5,0.6,0.4,1
		l-0.7,1.6C363.5,12.7,363.3,12.9,363,12.9z"/>
	<path class="st0" d="M353.7,16.4c-0.1,0-0.2,0-0.3-0.1l-1.6-0.7c-0.4-0.2-0.5-0.6-0.4-1c0.2-0.4,0.6-0.5,1-0.4L354,15
		c0.4,0.2,0.5,0.6,0.4,1C354.3,16.2,354,16.4,353.7,16.4z"/>
	<path class="st0" d="M368.1,22.8c-0.1,0-0.2,0-0.3-0.1l-1.6-0.7c-0.4-0.2-0.5-0.6-0.4-1c0.2-0.4,0.6-0.5,1-0.4l1.6,0.7
		c0.4,0.2,0.5,0.6,0.4,1C368.7,22.7,368.4,22.8,368.1,22.8z"/>
	<path class="st0" d="M352,22.4c-0.3,0-0.6-0.2-0.7-0.5c-0.1-0.4,0-0.8,0.4-1l1.6-0.6c0.4-0.1,0.8,0,1,0.4c0.1,0.4,0,0.8-0.4,1
		l-1.6,0.6C352.1,22.4,352,22.4,352,22.4z"/>
	<path class="st0" d="M366.7,16.8c-0.3,0-0.6-0.2-0.7-0.5c-0.1-0.4,0-0.8,0.4-1l1.6-0.6c0.4-0.1,0.8,0,1,0.4c0.1,0.4,0,0.8-0.4,1
		l-1.6,0.6C366.8,16.7,366.8,16.8,366.7,16.8z"/>
	<path class="st0" d="M357.6,12.7c-0.3,0-0.6-0.2-0.7-0.5l-0.6-1.6c-0.1-0.4,0-0.8,0.4-1s0.8,0,1,0.4l0.6,1.6c0.1,0.4,0,0.8-0.4,1
		C357.8,12.7,357.7,12.7,357.6,12.7z"/>
	<path class="st0" d="M363.2,27.4c-0.3,0-0.6-0.2-0.7-0.5l-0.6-1.6c-0.1-0.4,0-0.8,0.4-1c0.4-0.1,0.8,0,1,0.4l0.6,1.6
		c0.1,0.4,0,0.8-0.4,1C363.4,27.4,363.3,27.4,363.2,27.4z"/>
	<path class="st0" d="M360.1,22.8c-0.6,0-1.2-0.1-1.7-0.4c-1-0.5-1.8-1.3-2.2-2.4c-0.4-1.1-0.4-2.2,0.1-3.3c1-2.1,3.5-3.1,5.6-2.1
		c1,0.5,1.8,1.3,2.2,2.4c0.4,1.1,0.4,2.2-0.1,3.3c-0.5,1-1.3,1.8-2.4,2.2C361.1,22.7,360.6,22.8,360.1,22.8z M360.1,15.8
		c-1.1,0-2.1,0.6-2.5,1.6c-0.3,0.7-0.3,1.4-0.1,2.1c0.3,0.7,0.8,1.2,1.4,1.5c0.7,0.3,1.4,0.3,2.1,0.1c0.7-0.3,1.2-0.8,1.5-1.4
		s0.3-1.4,0.1-2.1c-0.3-0.7-0.8-1.2-1.4-1.5C360.9,15.8,360.5,15.8,360.1,15.8z"/>
</g>
</svg>
