<?xml version="1.0" encoding="utf-8"?>
<!-- Generator: Adobe Illustrator 19.2.0, SVG Export Plug-In . SVG Version: 6.00 Build 0)  -->
<svg version="1.1" id="Layer_1" xmlns="http://www.w3.org/2000/svg" xmlns:xlink="http://www.w3.org/1999/xlink" x="0px" y="0px"
	 viewBox="0 0 63 63" style="enable-background:new 0 0 63 63;" xml:space="preserve">
<style type="text/css">
	.st0{fill:#02868B;}
</style>
<g>
	<path class="st0" d="M-48.4,56.6h-44c-1.4,0-2.6-1.2-2.6-2.6V26c0-1.4,1.2-2.6,2.6-2.6h44c1.4,0,2.6,1.2,2.6,2.6v28
		C-45.8,55.4-46.9,56.6-48.4,56.6z M-92.4,24.6c-0.8,0-1.4,0.6-1.4,1.4v28c0,0.8,0.6,1.4,1.4,1.4h44c0.8,0,1.4-0.6,1.4-1.4V26
		c0-0.8-0.6-1.4-1.4-1.4H-92.4z"/>
	<path class="st0" d="M-85.4,34.6h-4c-0.9,0-1.6-0.7-1.6-1.6v-4c0-0.9,0.7-1.6,1.6-1.6h4c0.9,0,1.6,0.7,1.6,1.6v4
		C-83.8,33.9-84.5,34.6-85.4,34.6z M-89.4,28.6c-0.2,0-0.4,0.2-0.4,0.4v4c0,0.2,0.2,0.4,0.4,0.4h4c0.2,0,0.4-0.2,0.4-0.4v-4
		c0-0.2-0.2-0.4-0.4-0.4H-89.4z"/>
	<path class="st0" d="M-54.4,52.6c-1.1,0-2.2-0.4-3-1.1c-0.8,0.7-1.9,1.1-3,1.1c-2.5,0-4.6-2.1-4.6-4.6s2.1-4.6,4.6-4.6
		c1.1,0,2.2,0.4,3,1.1c0.8-0.7,1.9-1.1,3-1.1c2.5,0,4.6,2.1,4.6,4.6S-51.8,52.6-54.4,52.6z M-57.4,50c0.2,0,0.4,0.1,0.5,0.2
		c0.6,0.7,1.6,1.2,2.5,1.2c1.9,0,3.4-1.5,3.4-3.4s-1.5-3.4-3.4-3.4c-1,0-1.9,0.4-2.5,1.2c-0.2,0.3-0.7,0.3-0.9,0
		c-0.6-0.7-1.6-1.2-2.5-1.2c-1.9,0-3.4,1.5-3.4,3.4s1.5,3.4,3.4,3.4c1,0,1.9-0.4,2.5-1.2C-57.7,50.1-57.6,50-57.4,50z"/>
	<path class="st0" d="M-70.4,52.6h-18c-0.3,0-0.6-0.3-0.6-0.6s0.3-0.6,0.6-0.6h18c0.3,0,0.6,0.3,0.6,0.6S-70,52.6-70.4,52.6z"/>
	<path class="st0" d="M-84.4,48.6h-4c-0.3,0-0.6-0.3-0.6-0.6s0.3-0.6,0.6-0.6h4c0.3,0,0.6,0.3,0.6,0.6S-84,48.6-84.4,48.6z"/>
	<path class="st0" d="M-88.4,40.6c-0.3,0-0.6-0.3-0.6-0.6v-1c0-0.3,0.3-0.6,0.6-0.6s0.6,0.3,0.6,0.6v1C-87.8,40.3-88,40.6-88.4,40.6
		z"/>
	<path class="st0" d="M-84.4,40.6c-0.3,0-0.6-0.3-0.6-0.6v-1c0-0.3,0.3-0.6,0.6-0.6s0.6,0.3,0.6,0.6v1C-83.8,40.3-84,40.6-84.4,40.6
		z"/>
	<path class="st0" d="M-80.4,40.6c-0.3,0-0.6-0.3-0.6-0.6v-1c0-0.3,0.3-0.6,0.6-0.6s0.6,0.3,0.6,0.6v1C-79.8,40.3-80,40.6-80.4,40.6
		z"/>
	<path class="st0" d="M-68.4,40.6c-0.3,0-0.6-0.3-0.6-0.6v-1c0-0.3,0.3-0.6,0.6-0.6s0.6,0.3,0.6,0.6v1C-67.8,40.3-68,40.6-68.4,40.6
		z"/>
	<path class="st0" d="M-56.4,40.6c-0.3,0-0.6-0.3-0.6-0.6v-1c0-0.3,0.3-0.6,0.6-0.6s0.6,0.3,0.6,0.6v1C-55.8,40.3-56,40.6-56.4,40.6
		z"/>
	<path class="st0" d="M-76.4,40.6c-0.3,0-0.6-0.3-0.6-0.6v-1c0-0.3,0.3-0.6,0.6-0.6s0.6,0.3,0.6,0.6v1C-75.8,40.3-76,40.6-76.4,40.6
		z"/>
	<path class="st0" d="M-72.4,40.6c-0.3,0-0.6-0.3-0.6-0.6v-1c0-0.3,0.3-0.6,0.6-0.6s0.6,0.3,0.6,0.6v1C-71.8,40.3-72,40.6-72.4,40.6
		z"/>
	<path class="st0" d="M-64.4,40.6c-0.3,0-0.6-0.3-0.6-0.6v-1c0-0.3,0.3-0.6,0.6-0.6s0.6,0.3,0.6,0.6v1C-63.8,40.3-64,40.6-64.4,40.6
		z"/>
	<path class="st0" d="M-60.4,40.6c-0.3,0-0.6-0.3-0.6-0.6v-1c0-0.3,0.3-0.6,0.6-0.6s0.6,0.3,0.6,0.6v1C-59.8,40.3-60,40.6-60.4,40.6
		z"/>
	<path class="st0" d="M-52.4,40.6c-0.3,0-0.6-0.3-0.6-0.6v-1c0-0.3,0.3-0.6,0.6-0.6s0.6,0.3,0.6,0.6v1C-51.8,40.3-52,40.6-52.4,40.6
		z"/>
	<path class="st0" d="M-76.4,48.6h-4c-0.3,0-0.6-0.3-0.6-0.6s0.3-0.6,0.6-0.6h4c0.3,0,0.6,0.3,0.6,0.6S-76,48.6-76.4,48.6z"/>
	<path class="st0" d="M-94.4,38.6h-8c-1.4,0-2.6-1.2-2.6-2.6V8c0-1.4,1.2-2.6,2.6-2.6h44c1.4,0,2.6,1.2,2.6,2.6v16
		c0,0.3-0.3,0.6-0.6,0.6h-36c-0.8,0-1.4,0.6-1.4,1.4v12C-93.8,38.3-94,38.6-94.4,38.6z M-102.4,6.6c-0.8,0-1.4,0.6-1.4,1.4v28
		c0,0.8,0.6,1.4,1.4,1.4h7.4V26c0-1.4,1.2-2.6,2.6-2.6H-57V8c0-0.8-0.6-1.4-1.4-1.4H-102.4z"/>
	<path class="st0" d="M-56.4,18.6h-48c-0.3,0-0.6-0.3-0.6-0.6v-6c0-0.3,0.3-0.6,0.6-0.6h48c0.3,0,0.6,0.3,0.6,0.6v6
		C-55.8,18.3-56,18.6-56.4,18.6z M-103.8,17.4H-57v-4.8h-46.8V17.4z"/>
	<path class="st0" d="M-104.4,18.6c-0.2,0-0.3-0.1-0.4-0.2c-0.2-0.2-0.2-0.6,0-0.9l6-6c0.2-0.2,0.6-0.2,0.9,0s0.2,0.6,0,0.9l-6,6
		C-104.1,18.6-104.2,18.6-104.4,18.6z"/>
	<path class="st0" d="M-98.4,18.6c-0.2,0-0.3-0.1-0.4-0.2c-0.2-0.2-0.2-0.6,0-0.9l6-6c0.2-0.2,0.6-0.2,0.9,0s0.2,0.6,0,0.9l-6,6
		C-98.1,18.6-98.2,18.6-98.4,18.6z"/>
	<path class="st0" d="M-92.4,18.6c-0.2,0-0.3-0.1-0.4-0.2c-0.2-0.2-0.2-0.6,0-0.9l6-6c0.2-0.2,0.6-0.2,0.9,0s0.2,0.6,0,0.9l-6,6
		C-92.1,18.6-92.2,18.6-92.4,18.6z"/>
	<path class="st0" d="M-86.4,18.6c-0.2,0-0.3-0.1-0.4-0.2c-0.2-0.2-0.2-0.6,0-0.9l6-6c0.2-0.2,0.6-0.2,0.9,0s0.2,0.6,0,0.9l-6,6
		C-86.1,18.6-86.2,18.6-86.4,18.6z"/>
	<path class="st0" d="M-80.4,18.6c-0.2,0-0.3-0.1-0.4-0.2c-0.2-0.2-0.2-0.6,0-0.9l6-6c0.2-0.2,0.6-0.2,0.9,0c0.2,0.2,0.2,0.6,0,0.9
		l-6,6C-80.1,18.6-80.2,18.6-80.4,18.6z"/>
	<path class="st0" d="M-74.4,18.6c-0.2,0-0.3-0.1-0.4-0.2c-0.2-0.2-0.2-0.6,0-0.9l6-6c0.2-0.2,0.6-0.2,0.9,0c0.2,0.2,0.2,0.6,0,0.9
		l-6,6C-74.1,18.6-74.2,18.6-74.4,18.6z"/>
	<path class="st0" d="M-68.4,18.6c-0.2,0-0.3-0.1-0.4-0.2c-0.2-0.2-0.2-0.6,0-0.9l6-6c0.2-0.2,0.6-0.2,0.9,0c0.2,0.2,0.2,0.6,0,0.9
		l-6,6C-68.1,18.6-68.2,18.6-68.4,18.6z"/>
	<path class="st0" d="M-62.4,18.6c-0.2,0-0.3-0.1-0.4-0.2c-0.2-0.2-0.2-0.6,0-0.9l6-6c0.2-0.2,0.6-0.2,0.9,0c0.2,0.2,0.2,0.6,0,0.9
		l-6,6C-62.1,18.6-62.2,18.6-62.4,18.6z"/>
</g>
<g>
	<path class="st0" d="M22.5,49.3c-4.8,0-8.8-3.9-8.8-8.8s3.9-8.8,8.8-8.8s8.8,3.9,8.8,8.8S27.3,49.3,22.5,49.3z M22.5,33.3
		c-4,0-7.2,3.3-7.2,7.2s3.3,7.2,7.2,7.2s7.2-3.3,7.2-7.2S26.5,33.3,22.5,33.3z"/>
	<path class="st0" d="M22.5,45.3c-2.6,0-4.8-2.1-4.8-4.8s2.1-4.8,4.8-4.8s4.8,2.1,4.8,4.8S25.1,45.3,22.5,45.3z M22.5,37.3
		c-1.8,0-3.2,1.5-3.2,3.2s1.5,3.2,3.2,3.2s3.2-1.5,3.2-3.2S24.3,37.3,22.5,37.3z"/>
	<path class="st0" d="M46.5,21.3c-1.2,0-2.4-0.5-3.4-1.4c-1.9-1.9-1.9-4.9,0-6.7c1.9-1.9,4.9-1.9,6.7,0c0.9,0.9,1.4,2.1,1.4,3.4
		c0,1.3-0.5,2.5-1.4,3.4C48.9,20.8,47.7,21.3,46.5,21.3z M46.5,13.3c-0.8,0-1.7,0.3-2.3,1c-1.3,1.3-1.3,3.3,0,4.6
		c1.3,1.3,3.3,1.3,4.6,0c0.6-0.6,1-1.4,1-2.3c0-0.9-0.3-1.7-1-2.3C48.1,13.6,47.3,13.3,46.5,13.3z"/>
	<path class="st0" d="M25.1,59.3h-5.3c-0.3,0-0.6-0.2-0.7-0.5l-1.4-4.3c-0.5-0.2-1.1-0.4-1.6-0.7l-4.1,2c-0.3,0.1-0.6,0.1-0.9-0.1
		l-3.8-3.8C7.1,51.7,7,51.3,7.2,51l2-4.1c-0.3-0.5-0.5-1.1-0.7-1.6l-4.3-1.4c-0.3-0.1-0.5-0.4-0.5-0.7v-5.3c0-0.3,0.2-0.6,0.5-0.7
		l4.3-1.4c0.2-0.5,0.4-1.1,0.7-1.6l-2-4.1c-0.1-0.3-0.1-0.6,0.1-0.9l3.8-3.8c0.2-0.2,0.6-0.3,0.9-0.1l4.1,2c0.5-0.3,1.1-0.5,1.6-0.7
		l1.4-4.3c0.1-0.3,0.4-0.5,0.7-0.5h5.3c0.3,0,0.6,0.2,0.7,0.5l1.4,4.3c0.5,0.2,1.1,0.4,1.6,0.7l4.1-2c0.3-0.1,0.6-0.1,0.9,0.1
		l3.8,3.8c0.2,0.2,0.3,0.6,0.1,0.9l-2,4.1c0.3,0.5,0.5,1.1,0.7,1.6l4.3,1.4c0.3,0.1,0.5,0.4,0.5,0.7v5.3c0,0.3-0.2,0.6-0.5,0.7
		l-4.3,1.4c-0.2,0.5-0.4,1.1-0.7,1.6l2,4.1c0.1,0.3,0.1,0.6-0.1,0.9l-3.8,3.8c-0.2,0.2-0.6,0.3-0.9,0.1l-4.1-2
		c-0.5,0.3-1.1,0.5-1.6,0.7l-1.4,4.3C25.8,59.1,25.5,59.3,25.1,59.3z M20.3,57.8h4.3l1.4-4.1c0.1-0.2,0.3-0.4,0.5-0.5
		c0.7-0.2,1.4-0.5,2.1-0.9c0.2-0.1,0.5-0.1,0.7,0l3.9,2l3-3l-2-3.9c-0.1-0.2-0.1-0.5,0-0.7c0.4-0.7,0.7-1.4,0.9-2.1
		c0.1-0.2,0.3-0.4,0.5-0.5l4.1-1.4v-4.3L35.6,37c-0.2-0.1-0.4-0.3-0.5-0.5c-0.2-0.7-0.5-1.4-0.9-2.1c-0.1-0.2-0.1-0.5,0-0.7l2-3.9
		l-3-3l-3.9,2c-0.2,0.1-0.5,0.1-0.7,0c-0.7-0.4-1.4-0.7-2.1-0.9c-0.2-0.1-0.4-0.3-0.5-0.5l-1.4-4.1h-4.3L19,27.4
		c-0.1,0.2-0.3,0.4-0.5,0.5c-0.7,0.2-1.4,0.5-2.1,0.9c-0.2,0.1-0.5,0.1-0.7,0l-3.9-2l-3,3l2,3.9c0.1,0.2,0.1,0.5,0,0.7
		c-0.4,0.7-0.7,1.4-0.9,2.1c-0.1,0.2-0.2,0.4-0.5,0.5l-4.1,1.4v4.3L9.4,44c0.2,0.1,0.4,0.3,0.5,0.5c0.2,0.7,0.5,1.4,0.9,2.1
		c0.1,0.2,0.1,0.5,0,0.7l-2,3.9l3,3l3.9-2c0.2-0.1,0.5-0.1,0.7,0c0.7,0.4,1.4,0.7,2.1,0.9c0.2,0.1,0.4,0.2,0.5,0.5L20.3,57.8z
		 M40.5,43.2L40.5,43.2L40.5,43.2z"/>
	<path class="st0" d="M45.1,29.3c-0.1,0-0.1,0-0.2,0l-3.4-0.9c-0.3-0.1-0.5-0.4-0.6-0.7l-0.2-2.9c-0.5-0.3-1-0.7-1.4-1.2l0,0
		c-0.4-0.4-0.8-0.9-1.2-1.4l-2.9-0.2c-0.3,0-0.6-0.2-0.7-0.6l-0.9-3.4c-0.1-0.3,0-0.6,0.3-0.8l2.4-1.6c0.1-1.2,0.4-2.4,0.9-3.5
		l-1.3-2.6C35.9,9.3,36,9,36.2,8.8l2.5-2.5C38.9,6,39.3,6,39.6,6.1l2.6,1.3c1.1-0.5,2.2-0.8,3.5-0.9l1.6-2.4
		c0.2-0.3,0.5-0.4,0.8-0.3l3.4,0.9C51.8,4.8,52,5,52,5.3l0.2,2.9c0.5,0.3,1,0.7,1.4,1.2c0.4,0.4,0.8,0.9,1.2,1.4l2.9,0.2
		c0.3,0,0.6,0.2,0.7,0.6l0.9,3.4c0.1,0.3,0,0.6-0.3,0.8l-2.4,1.6c-0.1,1.2-0.4,2.4-0.9,3.5l1.3,2.6c0.1,0.3,0.1,0.6-0.1,0.9
		l-2.5,2.5c-0.2,0.2-0.6,0.3-0.9,0.1l-2.6-1.3c-1.1,0.5-2.2,0.8-3.5,0.9L45.7,29C45.6,29.2,45.3,29.3,45.1,29.3z M42.4,27.1l2.4,0.6
		l1.5-2.3c0.1-0.2,0.4-0.3,0.6-0.3c1.3-0.1,2.5-0.4,3.6-0.9c0.2-0.1,0.5-0.1,0.7,0l2.4,1.2l1.8-1.7l-1.2-2.4c-0.1-0.2-0.1-0.5,0-0.7
		c0.6-1.1,0.9-2.3,0.9-3.6c0-0.2,0.1-0.5,0.3-0.6l2.3-1.5L57,12.4l-2.7-0.2c-0.2,0-0.5-0.1-0.6-0.3c-0.3-0.5-0.7-1-1.2-1.5
		c-0.4-0.4-0.9-0.8-1.5-1.2c-0.2-0.1-0.3-0.3-0.3-0.6L50.6,6l-2.4-0.6l-1.5,2.3C46.5,7.8,46.3,8,46.1,8c-1.3,0.1-2.5,0.4-3.6,0.9
		C42.3,9,42,9,41.8,8.9l-2.4-1.2l-1.7,1.7l1.2,2.4c0.1,0.2,0.1,0.5,0,0.7c-0.6,1.1-0.9,2.3-0.9,3.6c0,0.2-0.1,0.5-0.3,0.6l-2.3,1.5
		l0.6,2.4l2.7,0.2c0.2,0,0.5,0.1,0.6,0.3c0.3,0.5,0.7,1,1.2,1.5c0.4,0.4,0.9,0.8,1.5,1.2c0.2,0.1,0.3,0.3,0.3,0.6L42.4,27.1z"/>
</g>
<g>
	<path class="st0" d="M124.4,29c-0.2,0-0.4-0.1-0.5-0.2l-1.9-1.9c-0.3-0.3-0.3-0.7,0-1c0.3-0.3,0.7-0.3,1,0l1.3,1.3l3.3-5
		c0.2-0.3,0.7-0.4,1-0.2c0.3,0.2,0.4,0.7,0.2,1l-3.8,5.7C124.9,28.9,124.7,29,124.4,29C124.5,29,124.5,29,124.4,29z"/>
	<path class="st0" d="M164.2,27.1h-30.3c-0.4,0-0.7-0.3-0.7-0.7c0-0.4,0.3-0.7,0.7-0.7h30.3c0.4,0,0.7,0.3,0.7,0.7
		C165,26.8,164.6,27.1,164.2,27.1z"/>
	<path class="st0" d="M124.4,40.4c-0.2,0-0.4-0.1-0.5-0.2l-1.9-1.9c-0.3-0.3-0.3-0.7,0-1c0.3-0.3,0.7-0.3,1,0l1.3,1.3l3.3-5
		c0.2-0.3,0.7-0.4,1-0.2c0.3,0.2,0.4,0.7,0.2,1L125,40C124.9,40.2,124.7,40.3,124.4,40.4C124.5,40.4,124.5,40.4,124.4,40.4z"/>
	<path class="st0" d="M164.2,38.5h-30.3c-0.4,0-0.7-0.3-0.7-0.7s0.3-0.7,0.7-0.7h30.3c0.4,0,0.7,0.3,0.7,0.7S164.6,38.5,164.2,38.5z
		"/>
	<path class="st0" d="M124.4,51.7c-0.2,0-0.4-0.1-0.5-0.2l-1.9-1.9c-0.3-0.3-0.3-0.7,0-1c0.3-0.3,0.7-0.3,1,0l1.3,1.3l3.3-5
		c0.2-0.3,0.7-0.4,1-0.2c0.3,0.2,0.4,0.7,0.2,1l-3.8,5.7C124.9,51.6,124.7,51.7,124.4,51.7C124.5,51.7,124.5,51.7,124.4,51.7z"/>
	<path class="st0" d="M164.2,49.8h-30.3c-0.4,0-0.7-0.3-0.7-0.7s0.3-0.7,0.7-0.7h30.3c0.4,0,0.7,0.3,0.7,0.7S164.6,49.8,164.2,49.8z
		"/>
</g>
<g>
	<path class="st0" d="M147.2,58.3h-28.8c-1.5,0-2.8-1.2-2.8-2.8V8.2c0-1.5,1.2-2.8,2.8-2.8h50.3c1.5,0,2.8,1.2,2.8,2.8V37
		c0,0.4-0.3,0.7-0.7,0.7c-0.4,0-0.7-0.3-0.7-0.7V8.2c0-0.7-0.6-1.3-1.3-1.3h-50.3c-0.7,0-1.3,0.6-1.3,1.3v47.3
		c0,0.7,0.6,1.3,1.3,1.3h28.8c0.4,0,0.7,0.3,0.7,0.7S147.5,58.3,147.2,58.3z"/>
	<path class="st0" d="M170.7,17.1h-54.4c-0.4,0-0.7-0.3-0.7-0.7c0-0.4,0.3-0.7,0.7-0.7h54.4c0.4,0,0.7,0.3,0.7,0.7
		C171.4,16.8,171.1,17.1,170.7,17.1z"/>
	<path class="st0" d="M121.4,13c-1,0-1.7-0.8-1.7-1.7c0-1,0.8-1.7,1.7-1.7s1.7,0.8,1.7,1.7C123.2,12.2,122.4,13,121.4,13z
		 M121.4,10.9c-0.2,0-0.3,0.1-0.3,0.3s0.1,0.3,0.3,0.3c0.2,0,0.3-0.1,0.3-0.3S121.6,10.9,121.4,10.9z"/>
	<path class="st0" d="M127.6,13c-1,0-1.7-0.8-1.7-1.7c0-1,0.8-1.7,1.7-1.7s1.7,0.8,1.7,1.7C129.3,12.2,128.6,13,127.6,13z
		 M127.6,10.9c-0.2,0-0.3,0.1-0.3,0.3s0.1,0.3,0.3,0.3c0.2,0,0.3-0.1,0.3-0.3S127.8,10.9,127.6,10.9z"/>
	<path class="st0" d="M133.8,13c-1,0-1.7-0.8-1.7-1.7c0-1,0.8-1.7,1.7-1.7s1.7,0.8,1.7,1.7C135.5,12.2,134.7,13,133.8,13z
		 M133.8,10.9c-0.2,0-0.3,0.1-0.3,0.3s0.1,0.3,0.3,0.3c0.2,0,0.3-0.1,0.3-0.3S134,10.9,133.8,10.9z"/>
	<path class="st0" d="M168.7,58.3h-46.2c-0.4,0-0.7-0.3-0.7-0.7s0.3-0.7,0.7-0.7h46.2c0.7,0,1.3-0.6,1.3-1.3V26.7
		c0-0.4,0.3-0.7,0.7-0.7c0.4,0,0.7,0.3,0.7,0.7v28.8C171.4,57,170.2,58.3,168.7,58.3z"/>
</g>
<g>
	<path class="st0" d="M271,46.2h-5c-0.4,0-0.8-0.3-0.8-0.8s0.3-0.8,0.8-0.8h5c7.3,0,13.2-5.9,13.2-13.2s-5.9-13.2-13.2-13.2
		c-10.3,0-14.2,13.3-14.3,13.5c0,0.1-1.1,3.7-3.5,7.2c-3.3,4.8-7.5,7.3-12.2,7.3c-8.1,0-14.8-6.6-14.8-14.8s6.6-14.8,14.8-14.8h5
		c0.4,0,0.8,0.3,0.8,0.8s-0.3,0.8-0.8,0.8h-5c-7.3,0-13.2,5.9-13.2,13.2s5.9,13.2,13.2,13.2c10.3,0,14.2-13.3,14.3-13.5
		c0-0.1,1.1-3.7,3.5-7.2c3.3-4.8,7.5-7.3,12.2-7.3c8.1,0,14.8,6.6,14.8,14.8S279.1,46.2,271,46.2z"/>
	<path class="st0" d="M256,31.5"/>
	<path class="st0" d="M240,24.2c-0.2,0-0.4-0.1-0.5-0.2c-0.3-0.3-0.3-0.8,0-1.1l5.5-5.5l-5.5-5.5c-0.3-0.3-0.3-0.8,0-1.1
		s0.8-0.3,1.1,0l6,6c0.3,0.3,0.3,0.8,0,1.1l-6,6C240.4,24.2,240.2,24.2,240,24.2z"/>
	<path class="st0" d="M272,52.2c-0.2,0-0.4-0.1-0.5-0.2l-6-6c-0.3-0.3-0.3-0.8,0-1.1l6-6c0.3-0.3,0.8-0.3,1.1,0s0.3,0.8,0,1.1
		l-5.5,5.5l5.5,5.5c0.3,0.3,0.3,0.8,0,1.1C272.4,52.2,272.2,52.2,272,52.2z"/>
</g>
<g>
	<path class="st0" d="M374.7,15.2c-0.2,0-0.4-0.1-0.5-0.2s-0.2-0.3-0.2-0.5c0-0.2,0.1-0.4,0.2-0.5c0.3-0.3,0.8-0.3,1.1,0
		c0.1,0.1,0.2,0.3,0.2,0.5c0,0.2-0.1,0.4-0.2,0.5C375,15.2,374.8,15.2,374.7,15.2z"/>
	<path class="st0" d="M374.7,49.2c-0.2,0-0.4-0.1-0.5-0.2s-0.2-0.3-0.2-0.5c0-0.2,0.1-0.4,0.2-0.5c0.3-0.3,0.8-0.3,1.1,0
		c0.1,0.1,0.2,0.3,0.2,0.5c0,0.2-0.1,0.4-0.2,0.5C375,49.2,374.9,49.2,374.7,49.2z"/>
	<path class="st0" d="M391.7,32.2c-0.2,0-0.4-0.1-0.5-0.2c-0.1-0.1-0.2-0.3-0.2-0.5c0-0.2,0.1-0.4,0.2-0.5c0.3-0.3,0.8-0.3,1.1,0
		c0.1,0.1,0.2,0.3,0.2,0.5c0,0.2-0.1,0.4-0.2,0.5C392,32.2,391.9,32.2,391.7,32.2z"/>
	<path class="st0" d="M357.7,32.2c-0.2,0-0.4-0.1-0.5-0.2s-0.2-0.3-0.2-0.5c0-0.2,0.1-0.4,0.2-0.5c0.3-0.3,0.8-0.3,1.1,0
		c0.1,0.1,0.2,0.3,0.2,0.5c0,0.2-0.1,0.4-0.2,0.5C358,32.2,357.9,32.2,357.7,32.2z"/>
	<path class="st0" d="M374.7,34.2c-1.5,0-2.8-1.2-2.8-2.8s1.2-2.8,2.8-2.8s2.8,1.2,2.8,2.8S376.2,34.2,374.7,34.2z M374.7,30.2
		c-0.7,0-1.2,0.6-1.2,1.2s0.6,1.2,1.2,1.2s1.2-0.6,1.2-1.2S375.4,30.2,374.7,30.2z"/>
	<path class="st0" d="M374.7,30.2c-0.4,0-0.8-0.3-0.8-0.8v-10c0-0.4,0.3-0.8,0.8-0.8s0.8,0.3,0.8,0.8v10
		C375.4,29.9,375.1,30.2,374.7,30.2z"/>
	<path class="st0" d="M385.7,32.2h-9c-0.4,0-0.8-0.3-0.8-0.8s0.3-0.8,0.8-0.8h9c0.4,0,0.8,0.3,0.8,0.8S386.1,32.2,385.7,32.2z"/>
	<g>
		<path class="st0" d="M374.7,57.2c-14.2,0-25.8-11.6-25.8-25.8c0-0.4,0.3-0.8,0.8-0.8s0.8,0.3,0.8,0.8c0,13.4,10.9,24.2,24.2,24.2
			s24.2-10.9,24.2-24.2S388,7.2,374.7,7.2c-7.7,0-14.8,3.5-19.4,9.7c-0.2,0.3-0.7,0.4-1,0.1c-0.3-0.2-0.4-0.7-0.1-1.1
			c4.9-6.5,12.4-10.3,20.6-10.3c14.2,0,25.8,11.6,25.8,25.8S388.9,57.2,374.7,57.2z"/>
		<path class="st0" d="M364.7,17.2h-10c-0.4,0-0.8-0.3-0.8-0.8v-10c0-0.4,0.3-0.8,0.8-0.8s0.8,0.3,0.8,0.8v9.2h9.2
			c0.4,0,0.8,0.3,0.8,0.8S365.1,17.2,364.7,17.2z"/>
	</g>
</g>
<path class="st0" d="M491.6,52.3h-29.6c-1.5,0-2.8-1.2-2.8-2.8v-40c0-1.5,1.2-2.8,2.8-2.8h47c1.5,0,2.8,1.2,2.8,2.8V32
	c0,0.4-0.3,0.8-0.8,0.8s-0.8-0.3-0.8-0.8V9.5c0-0.7-0.6-1.2-1.2-1.2h-47c-0.7,0-1.2,0.6-1.2,1.2v40c0,0.7,0.6,1.2,1.2,1.2h29.6
	c0.4,0,0.8,0.3,0.8,0.8S492.1,52.3,491.6,52.3z"/>
<g>
	<path class="st0" d="M504.9,58.5C504.9,58.5,504.9,58.5,504.9,58.5c-0.3,0-0.5-0.1-0.6-0.3c-0.5-0.7-1.7-1.7-3.2-2.9
		c-3.6-2.8-8.5-6.7-8.9-11.9c-0.3-3.9,2.5-6.7,5.4-7.5c2.4-0.6,5.4,0,7.4,3.2c2.2-3.2,5.2-3.7,7.5-3.1c3.2,0.9,5.4,3.9,5.2,7.4
		c-0.3,5.1-5.3,9.1-8.9,12c-1.5,1.2-2.7,2.2-3.2,2.9C505.4,58.4,505.2,58.5,504.9,58.5z M499.2,37.2c-0.4,0-0.9,0.1-1.3,0.2
		c-2.3,0.6-4.5,2.8-4.2,5.9c0.3,4.5,5,8.2,8.3,10.9c1.2,0.9,2.2,1.7,2.9,2.5c0.7-0.7,1.7-1.5,2.9-2.5c3.4-2.7,8.1-6.4,8.3-10.9
		c0.2-3.2-2-5.3-4.1-5.9c-2.6-0.7-5,0.6-6.5,3.5c-0.1,0.3-0.4,0.4-0.7,0.4c-0.3,0-0.5-0.2-0.7-0.4C503,38.1,501,37.2,499.2,37.2z"/>
</g>
<g>
	<path class="st0" d="M460.1,48.9c-0.2,0-0.4-0.1-0.5-0.2c-0.3-0.3-0.3-0.8,0-1.1l16.1-17.5c0.1-0.2,0.4-0.3,0.6-0.2
		c0.2,0,0.4,0.1,0.6,0.3l4.8,6.3c0.3,0.3,0.2,0.8-0.1,1.1c-0.3,0.3-0.8,0.2-1.1-0.1l-4.3-5.6l-15.5,16.9
		C460.5,48.8,460.3,48.9,460.1,48.9z"/>
	<path class="st0" d="M470.7,52c-0.2,0-0.3,0-0.4-0.1c-0.3-0.2-0.4-0.7-0.2-1L495.7,16c0.1-0.2,0.4-0.3,0.6-0.3
		c0.2,0,0.5,0.1,0.6,0.3l10.6,16.5c0.2,0.3,0.1,0.8-0.2,1c-0.4,0.2-0.8,0.1-1-0.2l-10-15.6l-24.9,34C471.2,51.9,471,52,470.7,52z"/>
	<path class="st0" d="M487.1,29.6c-0.3,0-0.5-0.1-0.7-0.4c-0.2-0.4-0.1-0.8,0.3-1l6.1-3.5c0.3-0.2,0.7-0.1,1,0.2l2.1,2.8l2.4-2.7
		c0.2-0.3,0.6-0.3,1-0.1l5.1,3.1c0.4,0.2,0.5,0.7,0.2,1c-0.2,0.4-0.7,0.5-1,0.2l-4.5-2.8l-2.6,2.9c-0.1,0.2-0.3,0.3-0.6,0.3
		c-0.2,0-0.4-0.1-0.6-0.3l-2.3-3l-5.5,3.2C487.4,29.6,487.3,29.6,487.1,29.6z"/>
</g>
<g>
	<path class="st0" d="M468.6,27.2c-0.1,0-0.2,0-0.3-0.1c-0.4-0.2-0.5-0.6-0.4-1l0.7-1.6c0.2-0.4,0.6-0.5,1-0.4
		c0.4,0.2,0.5,0.6,0.4,1l-0.7,1.6C469.1,27.1,468.8,27.2,468.6,27.2z"/>
	<path class="st0" d="M475,12.9c-0.1,0-0.2,0-0.3-0.1c-0.4-0.2-0.5-0.6-0.4-1l0.7-1.6c0.2-0.4,0.6-0.5,1-0.4c0.4,0.2,0.5,0.6,0.4,1
		l-0.7,1.6C475.5,12.7,475.3,12.9,475,12.9z"/>
	<path class="st0" d="M465.7,16.4c-0.1,0-0.2,0-0.3-0.1l-1.6-0.7c-0.4-0.2-0.5-0.6-0.4-1c0.2-0.4,0.6-0.5,1-0.4L466,15
		c0.4,0.2,0.5,0.6,0.4,1C466.3,16.2,466,16.4,465.7,16.4z"/>
	<path class="st0" d="M480.1,22.8c-0.1,0-0.2,0-0.3-0.1l-1.6-0.7c-0.4-0.2-0.5-0.6-0.4-1c0.2-0.4,0.6-0.5,1-0.4l1.6,0.7
		c0.4,0.2,0.5,0.6,0.4,1C480.7,22.7,480.4,22.8,480.1,22.8z"/>
	<path class="st0" d="M464,22.4c-0.3,0-0.6-0.2-0.7-0.5c-0.1-0.4,0-0.8,0.4-1l1.6-0.6c0.4-0.1,0.8,0,1,0.4c0.1,0.4,0,0.8-0.4,1
		l-1.6,0.6C464.1,22.4,464,22.4,464,22.4z"/>
	<path class="st0" d="M478.7,16.8c-0.3,0-0.6-0.2-0.7-0.5c-0.1-0.4,0-0.8,0.4-1l1.6-0.6c0.4-0.1,0.8,0,1,0.4c0.1,0.4,0,0.8-0.4,1
		l-1.6,0.6C478.8,16.7,478.8,16.8,478.7,16.8z"/>
	<path class="st0" d="M469.6,12.7c-0.3,0-0.6-0.2-0.7-0.5l-0.6-1.6c-0.1-0.4,0-0.8,0.4-1s0.8,0,1,0.4l0.6,1.6c0.1,0.4,0,0.8-0.4,1
		C469.8,12.7,469.7,12.7,469.6,12.7z"/>
	<path class="st0" d="M475.2,27.4c-0.3,0-0.6-0.2-0.7-0.5l-0.6-1.6c-0.1-0.4,0-0.8,0.4-1c0.4-0.1,0.8,0,1,0.4l0.6,1.6
		c0.1,0.4,0,0.8-0.4,1C475.4,27.4,475.3,27.4,475.2,27.4z"/>
	<path class="st0" d="M472.1,22.8c-0.6,0-1.2-0.1-1.7-0.4c-1-0.5-1.8-1.3-2.2-2.4c-0.4-1.1-0.4-2.2,0.1-3.3c1-2.1,3.5-3.1,5.6-2.1
		c1,0.5,1.8,1.3,2.2,2.4c0.4,1.1,0.4,2.2-0.1,3.3c-0.5,1-1.3,1.8-2.4,2.2C473.1,22.7,472.6,22.8,472.1,22.8z M472.1,15.8
		c-1.1,0-2.1,0.6-2.5,1.6c-0.3,0.7-0.3,1.4-0.1,2.1c0.3,0.7,0.8,1.2,1.4,1.5c0.7,0.3,1.4,0.3,2.1,0.1c0.7-0.3,1.2-0.8,1.5-1.4
		s0.3-1.4,0.1-2.1c-0.3-0.7-0.8-1.2-1.4-1.5C472.9,15.8,472.5,15.8,472.1,15.8z"/>
</g>
</svg>
