<?xml version="1.0" encoding="utf-8"?>
<!-- Generator: Adobe Illustrator 19.2.0, SVG Export Plug-In . SVG Version: 6.00 Build 0)  -->
<svg version="1.1" id="Layer_1" xmlns="http://www.w3.org/2000/svg" xmlns:xlink="http://www.w3.org/1999/xlink" x="0px" y="0px"
	 viewBox="0 0 63 63" style="enable-background:new 0 0 63 63;" xml:space="preserve">
<style type="text/css">
	.st0{fill:#02868B;}
</style>
<g>
	<path class="st0" d="M-273.4,56.6h-44c-1.4,0-2.6-1.2-2.6-2.6V26c0-1.4,1.2-2.6,2.6-2.6h44c1.4,0,2.6,1.2,2.6,2.6v28
		C-270.8,55.4-271.9,56.6-273.4,56.6z M-317.4,24.6c-0.8,0-1.4,0.6-1.4,1.4v28c0,0.8,0.6,1.4,1.4,1.4h44c0.8,0,1.4-0.6,1.4-1.4V26
		c0-0.8-0.6-1.4-1.4-1.4H-317.4z"/>
	<path class="st0" d="M-310.4,34.6h-4c-0.9,0-1.6-0.7-1.6-1.6v-4c0-0.9,0.7-1.6,1.6-1.6h4c0.9,0,1.6,0.7,1.6,1.6v4
		C-308.8,33.9-309.5,34.6-310.4,34.6z M-314.4,28.6c-0.2,0-0.4,0.2-0.4,0.4v4c0,0.2,0.2,0.4,0.4,0.4h4c0.2,0,0.4-0.2,0.4-0.4v-4
		c0-0.2-0.2-0.4-0.4-0.4H-314.4z"/>
	<path class="st0" d="M-279.4,52.6c-1.1,0-2.2-0.4-3-1.1c-0.8,0.7-1.9,1.1-3,1.1c-2.5,0-4.6-2.1-4.6-4.6s2.1-4.6,4.6-4.6
		c1.1,0,2.2,0.4,3,1.1c0.8-0.7,1.9-1.1,3-1.1c2.5,0,4.6,2.1,4.6,4.6S-276.8,52.6-279.4,52.6z M-282.4,50c0.2,0,0.4,0.1,0.5,0.2
		c0.6,0.7,1.6,1.2,2.5,1.2c1.9,0,3.4-1.5,3.4-3.4s-1.5-3.4-3.4-3.4c-1,0-1.9,0.4-2.5,1.2c-0.2,0.3-0.7,0.3-0.9,0
		c-0.6-0.7-1.6-1.2-2.5-1.2c-1.9,0-3.4,1.5-3.4,3.4s1.5,3.4,3.4,3.4c1,0,1.9-0.4,2.5-1.2C-282.7,50.1-282.6,50-282.4,50z"/>
	<path class="st0" d="M-295.4,52.6h-18c-0.3,0-0.6-0.3-0.6-0.6s0.3-0.6,0.6-0.6h18c0.3,0,0.6,0.3,0.6,0.6S-295,52.6-295.4,52.6z"/>
	<path class="st0" d="M-309.4,48.6h-4c-0.3,0-0.6-0.3-0.6-0.6s0.3-0.6,0.6-0.6h4c0.3,0,0.6,0.3,0.6,0.6S-309,48.6-309.4,48.6z"/>
	<path class="st0" d="M-313.4,40.6c-0.3,0-0.6-0.3-0.6-0.6v-1c0-0.3,0.3-0.6,0.6-0.6s0.6,0.3,0.6,0.6v1
		C-312.8,40.3-313,40.6-313.4,40.6z"/>
	<path class="st0" d="M-309.4,40.6c-0.3,0-0.6-0.3-0.6-0.6v-1c0-0.3,0.3-0.6,0.6-0.6s0.6,0.3,0.6,0.6v1
		C-308.8,40.3-309,40.6-309.4,40.6z"/>
	<path class="st0" d="M-305.4,40.6c-0.3,0-0.6-0.3-0.6-0.6v-1c0-0.3,0.3-0.6,0.6-0.6s0.6,0.3,0.6,0.6v1
		C-304.8,40.3-305,40.6-305.4,40.6z"/>
	<path class="st0" d="M-293.4,40.6c-0.3,0-0.6-0.3-0.6-0.6v-1c0-0.3,0.3-0.6,0.6-0.6s0.6,0.3,0.6,0.6v1
		C-292.8,40.3-293,40.6-293.4,40.6z"/>
	<path class="st0" d="M-281.4,40.6c-0.3,0-0.6-0.3-0.6-0.6v-1c0-0.3,0.3-0.6,0.6-0.6s0.6,0.3,0.6,0.6v1
		C-280.8,40.3-281,40.6-281.4,40.6z"/>
	<path class="st0" d="M-301.4,40.6c-0.3,0-0.6-0.3-0.6-0.6v-1c0-0.3,0.3-0.6,0.6-0.6s0.6,0.3,0.6,0.6v1
		C-300.8,40.3-301,40.6-301.4,40.6z"/>
	<path class="st0" d="M-297.4,40.6c-0.3,0-0.6-0.3-0.6-0.6v-1c0-0.3,0.3-0.6,0.6-0.6s0.6,0.3,0.6,0.6v1
		C-296.8,40.3-297,40.6-297.4,40.6z"/>
	<path class="st0" d="M-289.4,40.6c-0.3,0-0.6-0.3-0.6-0.6v-1c0-0.3,0.3-0.6,0.6-0.6s0.6,0.3,0.6,0.6v1
		C-288.8,40.3-289,40.6-289.4,40.6z"/>
	<path class="st0" d="M-285.4,40.6c-0.3,0-0.6-0.3-0.6-0.6v-1c0-0.3,0.3-0.6,0.6-0.6s0.6,0.3,0.6,0.6v1
		C-284.8,40.3-285,40.6-285.4,40.6z"/>
	<path class="st0" d="M-277.4,40.6c-0.3,0-0.6-0.3-0.6-0.6v-1c0-0.3,0.3-0.6,0.6-0.6s0.6,0.3,0.6,0.6v1
		C-276.8,40.3-277,40.6-277.4,40.6z"/>
	<path class="st0" d="M-301.4,48.6h-4c-0.3,0-0.6-0.3-0.6-0.6s0.3-0.6,0.6-0.6h4c0.3,0,0.6,0.3,0.6,0.6S-301,48.6-301.4,48.6z"/>
	<path class="st0" d="M-319.4,38.6h-8c-1.4,0-2.6-1.2-2.6-2.6V8c0-1.4,1.2-2.6,2.6-2.6h44c1.4,0,2.6,1.2,2.6,2.6v16
		c0,0.3-0.3,0.6-0.6,0.6h-36c-0.8,0-1.4,0.6-1.4,1.4v12C-318.8,38.3-319,38.6-319.4,38.6z M-327.4,6.6c-0.8,0-1.4,0.6-1.4,1.4v28
		c0,0.8,0.6,1.4,1.4,1.4h7.4V26c0-1.4,1.2-2.6,2.6-2.6h35.4V8c0-0.8-0.6-1.4-1.4-1.4H-327.4z"/>
	<path class="st0" d="M-281.4,18.6h-48c-0.3,0-0.6-0.3-0.6-0.6v-6c0-0.3,0.3-0.6,0.6-0.6h48c0.3,0,0.6,0.3,0.6,0.6v6
		C-280.8,18.3-281,18.6-281.4,18.6z M-328.8,17.4h46.8v-4.8h-46.8V17.4z"/>
	<path class="st0" d="M-329.4,18.6c-0.2,0-0.3-0.1-0.4-0.2c-0.2-0.2-0.2-0.6,0-0.9l6-6c0.2-0.2,0.6-0.2,0.9,0s0.2,0.6,0,0.9l-6,6
		C-329.1,18.6-329.2,18.6-329.4,18.6z"/>
	<path class="st0" d="M-323.4,18.6c-0.2,0-0.3-0.1-0.4-0.2c-0.2-0.2-0.2-0.6,0-0.9l6-6c0.2-0.2,0.6-0.2,0.9,0s0.2,0.6,0,0.9l-6,6
		C-323.1,18.6-323.2,18.6-323.4,18.6z"/>
	<path class="st0" d="M-317.4,18.6c-0.2,0-0.3-0.1-0.4-0.2c-0.2-0.2-0.2-0.6,0-0.9l6-6c0.2-0.2,0.6-0.2,0.9,0s0.2,0.6,0,0.9l-6,6
		C-317.1,18.6-317.2,18.6-317.4,18.6z"/>
	<path class="st0" d="M-311.4,18.6c-0.2,0-0.3-0.1-0.4-0.2c-0.2-0.2-0.2-0.6,0-0.9l6-6c0.2-0.2,0.6-0.2,0.9,0s0.2,0.6,0,0.9l-6,6
		C-311.1,18.6-311.2,18.6-311.4,18.6z"/>
	<path class="st0" d="M-305.4,18.6c-0.2,0-0.3-0.1-0.4-0.2c-0.2-0.2-0.2-0.6,0-0.9l6-6c0.2-0.2,0.6-0.2,0.9,0c0.2,0.2,0.2,0.6,0,0.9
		l-6,6C-305.1,18.6-305.2,18.6-305.4,18.6z"/>
	<path class="st0" d="M-299.4,18.6c-0.2,0-0.3-0.1-0.4-0.2c-0.2-0.2-0.2-0.6,0-0.9l6-6c0.2-0.2,0.6-0.2,0.9,0c0.2,0.2,0.2,0.6,0,0.9
		l-6,6C-299.1,18.6-299.2,18.6-299.4,18.6z"/>
	<path class="st0" d="M-293.4,18.6c-0.2,0-0.3-0.1-0.4-0.2c-0.2-0.2-0.2-0.6,0-0.9l6-6c0.2-0.2,0.6-0.2,0.9,0c0.2,0.2,0.2,0.6,0,0.9
		l-6,6C-293.1,18.6-293.2,18.6-293.4,18.6z"/>
	<path class="st0" d="M-287.4,18.6c-0.2,0-0.3-0.1-0.4-0.2c-0.2-0.2-0.2-0.6,0-0.9l6-6c0.2-0.2,0.6-0.2,0.9,0c0.2,0.2,0.2,0.6,0,0.9
		l-6,6C-287.1,18.6-287.2,18.6-287.4,18.6z"/>
</g>
<g>
	<path class="st0" d="M-202.5,49.3c-4.8,0-8.8-3.9-8.8-8.8s3.9-8.8,8.8-8.8s8.8,3.9,8.8,8.8S-197.7,49.3-202.5,49.3z M-202.5,33.3
		c-4,0-7.2,3.3-7.2,7.2s3.3,7.2,7.2,7.2s7.2-3.3,7.2-7.2S-198.5,33.3-202.5,33.3z"/>
	<path class="st0" d="M-202.5,45.3c-2.6,0-4.8-2.1-4.8-4.8s2.1-4.8,4.8-4.8s4.8,2.1,4.8,4.8S-199.9,45.3-202.5,45.3z M-202.5,37.3
		c-1.8,0-3.2,1.5-3.2,3.2s1.5,3.2,3.2,3.2s3.2-1.5,3.2-3.2S-200.7,37.3-202.5,37.3z"/>
	<path class="st0" d="M-178.5,21.3c-1.2,0-2.4-0.5-3.4-1.4c-1.9-1.9-1.9-4.9,0-6.7c1.9-1.9,4.9-1.9,6.7,0c0.9,0.9,1.4,2.1,1.4,3.4
		c0,1.3-0.5,2.5-1.4,3.4C-176.1,20.8-177.3,21.3-178.5,21.3z M-178.5,13.3c-0.8,0-1.7,0.3-2.3,1c-1.3,1.3-1.3,3.3,0,4.6
		c1.3,1.3,3.3,1.3,4.6,0c0.6-0.6,1-1.4,1-2.3c0-0.9-0.3-1.7-1-2.3C-176.9,13.6-177.7,13.3-178.5,13.3z"/>
	<path class="st0" d="M-199.9,59.3h-5.3c-0.3,0-0.6-0.2-0.7-0.5l-1.4-4.3c-0.5-0.2-1.1-0.4-1.6-0.7l-4.1,2c-0.3,0.1-0.6,0.1-0.9-0.1
		l-3.8-3.8c-0.2-0.2-0.3-0.6-0.1-0.9l2-4.1c-0.3-0.5-0.5-1.1-0.7-1.6l-4.3-1.4c-0.3-0.1-0.5-0.4-0.5-0.7v-5.3c0-0.3,0.2-0.6,0.5-0.7
		l4.3-1.4c0.2-0.5,0.4-1.1,0.7-1.6l-2-4.1c-0.1-0.3-0.1-0.6,0.1-0.9l3.8-3.8c0.2-0.2,0.6-0.3,0.9-0.1l4.1,2c0.5-0.3,1.1-0.5,1.6-0.7
		l1.4-4.3c0.1-0.3,0.4-0.5,0.7-0.5h5.3c0.3,0,0.6,0.2,0.7,0.5l1.4,4.3c0.5,0.2,1.1,0.4,1.6,0.7l4.1-2c0.3-0.1,0.6-0.1,0.9,0.1
		l3.8,3.8c0.2,0.2,0.3,0.6,0.1,0.9l-2,4.1c0.3,0.5,0.5,1.1,0.7,1.6l4.3,1.4c0.3,0.1,0.5,0.4,0.5,0.7v5.3c0,0.3-0.2,0.6-0.5,0.7
		l-4.3,1.4c-0.2,0.5-0.4,1.1-0.7,1.6l2,4.1c0.1,0.3,0.1,0.6-0.1,0.9l-3.8,3.8c-0.2,0.2-0.6,0.3-0.9,0.1l-4.1-2
		c-0.5,0.3-1.1,0.5-1.6,0.7l-1.4,4.3C-199.2,59.1-199.5,59.3-199.9,59.3z M-204.7,57.8h4.3l1.4-4.1c0.1-0.2,0.3-0.4,0.5-0.5
		c0.7-0.2,1.4-0.5,2.1-0.9c0.2-0.1,0.5-0.1,0.7,0l3.9,2l3-3l-2-3.9c-0.1-0.2-0.1-0.5,0-0.7c0.4-0.7,0.7-1.4,0.9-2.1
		c0.1-0.2,0.3-0.4,0.5-0.5l4.1-1.4v-4.3l-4.1-1.4c-0.2-0.1-0.4-0.3-0.5-0.5c-0.2-0.7-0.5-1.4-0.9-2.1c-0.1-0.2-0.1-0.5,0-0.7l2-3.9
		l-3-3l-3.9,2c-0.2,0.1-0.5,0.1-0.7,0c-0.7-0.4-1.4-0.7-2.1-0.9c-0.2-0.1-0.4-0.3-0.5-0.5l-1.4-4.1h-4.3l-1.4,4.1
		c-0.1,0.2-0.3,0.4-0.5,0.5c-0.7,0.2-1.4,0.5-2.1,0.9c-0.2,0.1-0.5,0.1-0.7,0l-3.9-2l-3,3l2,3.9c0.1,0.2,0.1,0.5,0,0.7
		c-0.4,0.7-0.7,1.4-0.9,2.1c-0.1,0.2-0.2,0.4-0.5,0.5l-4.1,1.4v4.3l4.1,1.4c0.2,0.1,0.4,0.3,0.5,0.5c0.2,0.7,0.5,1.4,0.9,2.1
		c0.1,0.2,0.1,0.5,0,0.7l-2,3.9l3,3l3.9-2c0.2-0.1,0.5-0.1,0.7,0c0.7,0.4,1.4,0.7,2.1,0.9c0.2,0.1,0.4,0.2,0.5,0.5L-204.7,57.8z
		 M-184.5,43.2L-184.5,43.2L-184.5,43.2z"/>
	<path class="st0" d="M-179.9,29.3c-0.1,0-0.1,0-0.2,0l-3.4-0.9c-0.3-0.1-0.5-0.4-0.6-0.7l-0.2-2.9c-0.5-0.3-1-0.7-1.4-1.2
		c0,0,0,0,0,0c-0.4-0.4-0.8-0.9-1.2-1.4l-2.9-0.2c-0.3,0-0.6-0.2-0.7-0.6l-0.9-3.4c-0.1-0.3,0-0.6,0.3-0.8l2.4-1.6
		c0.1-1.2,0.4-2.4,0.9-3.5l-1.3-2.6c-0.1-0.3-0.1-0.6,0.1-0.9l2.5-2.5c0.2-0.2,0.6-0.3,0.9-0.1l2.6,1.3c1.1-0.5,2.2-0.8,3.5-0.9
		l1.6-2.4c0.2-0.3,0.5-0.4,0.8-0.3l3.4,0.9c0.3,0.1,0.5,0.4,0.6,0.7l0.2,2.9c0.5,0.3,1,0.7,1.4,1.2c0.4,0.4,0.8,0.9,1.2,1.4l2.9,0.2
		c0.3,0,0.6,0.2,0.7,0.6l0.9,3.4c0.1,0.3,0,0.6-0.3,0.8l-2.4,1.6c-0.1,1.2-0.4,2.4-0.9,3.5l1.3,2.6c0.1,0.3,0.1,0.6-0.1,0.9
		l-2.5,2.5c-0.2,0.2-0.6,0.3-0.9,0.1l-2.6-1.3c-1.1,0.5-2.2,0.8-3.5,0.9l-1.6,2.4C-179.4,29.2-179.7,29.3-179.9,29.3z M-182.6,27.1
		l2.4,0.6l1.5-2.3c0.1-0.2,0.4-0.3,0.6-0.3c1.3-0.1,2.5-0.4,3.6-0.9c0.2-0.1,0.5-0.1,0.7,0l2.4,1.2l1.8-1.7l-1.2-2.4
		c-0.1-0.2-0.1-0.5,0-0.7c0.6-1.1,0.9-2.3,0.9-3.6c0-0.2,0.1-0.5,0.3-0.6l2.3-1.5l-0.6-2.4l-2.7-0.2c-0.2,0-0.5-0.1-0.6-0.3
		c-0.3-0.5-0.7-1-1.2-1.5c-0.4-0.4-0.9-0.8-1.5-1.2c-0.2-0.1-0.3-0.3-0.3-0.6l-0.2-2.7l-2.4-0.6l-1.5,2.3c-0.1,0.2-0.4,0.3-0.6,0.3
		c-1.3,0.1-2.5,0.4-3.6,0.9c-0.2,0.1-0.5,0.1-0.7,0l-2.4-1.2l-1.7,1.7l1.2,2.4c0.1,0.2,0.1,0.5,0,0.7c-0.6,1.1-0.9,2.3-0.9,3.6
		c0,0.2-0.1,0.5-0.3,0.6l-2.3,1.5l0.6,2.4l2.7,0.2c0.2,0,0.5,0.1,0.6,0.3c0.3,0.5,0.7,1,1.2,1.5c0.4,0.4,0.9,0.8,1.5,1.2
		c0.2,0.1,0.3,0.3,0.3,0.6L-182.6,27.1z"/>
</g>
<g>
	<path class="st0" d="M-100.6,29c-0.2,0-0.4-0.1-0.5-0.2l-1.9-1.9c-0.3-0.3-0.3-0.7,0-1c0.3-0.3,0.7-0.3,1,0l1.3,1.3l3.3-5
		c0.2-0.3,0.7-0.4,1-0.2c0.3,0.2,0.4,0.7,0.2,1l-3.8,5.7C-100.1,28.9-100.3,29-100.6,29C-100.5,29-100.5,29-100.6,29z"/>
	<path class="st0" d="M-60.8,27.1h-30.3c-0.4,0-0.7-0.3-0.7-0.7c0-0.4,0.3-0.7,0.7-0.7h30.3c0.4,0,0.7,0.3,0.7,0.7
		C-60,26.8-60.4,27.1-60.8,27.1z"/>
	<path class="st0" d="M-100.6,40.4c-0.2,0-0.4-0.1-0.5-0.2l-1.9-1.9c-0.3-0.3-0.3-0.7,0-1c0.3-0.3,0.7-0.3,1,0l1.3,1.3l3.3-5
		c0.2-0.3,0.7-0.4,1-0.2c0.3,0.2,0.4,0.7,0.2,1L-100,40C-100.1,40.2-100.3,40.3-100.6,40.4C-100.5,40.4-100.5,40.4-100.6,40.4z"/>
	<path class="st0" d="M-60.8,38.5h-30.3c-0.4,0-0.7-0.3-0.7-0.7s0.3-0.7,0.7-0.7h30.3c0.4,0,0.7,0.3,0.7,0.7S-60.4,38.5-60.8,38.5z"
		/>
	<path class="st0" d="M-100.6,51.7c-0.2,0-0.4-0.1-0.5-0.2l-1.9-1.9c-0.3-0.3-0.3-0.7,0-1c0.3-0.3,0.7-0.3,1,0l1.3,1.3l3.3-5
		c0.2-0.3,0.7-0.4,1-0.2c0.3,0.2,0.4,0.7,0.2,1l-3.8,5.7C-100.1,51.6-100.3,51.7-100.6,51.7C-100.5,51.7-100.5,51.7-100.6,51.7z"/>
	<path class="st0" d="M-60.8,49.8h-30.3c-0.4,0-0.7-0.3-0.7-0.7s0.3-0.7,0.7-0.7h30.3c0.4,0,0.7,0.3,0.7,0.7S-60.4,49.8-60.8,49.8z"
		/>
</g>
<g>
	<path class="st0" d="M-77.8,58.3h-28.8c-1.5,0-2.8-1.2-2.8-2.8V8.2c0-1.5,1.2-2.8,2.8-2.8h50.3c1.5,0,2.8,1.2,2.8,2.8V37
		c0,0.4-0.3,0.7-0.7,0.7S-55,37.4-55,37V8.2c0-0.7-0.6-1.3-1.3-1.3h-50.3c-0.7,0-1.3,0.6-1.3,1.3v47.3c0,0.7,0.6,1.3,1.3,1.3h28.8
		c0.4,0,0.7,0.3,0.7,0.7S-77.5,58.3-77.8,58.3z"/>
	<path class="st0" d="M-54.3,17.1h-54.4c-0.4,0-0.7-0.3-0.7-0.7c0-0.4,0.3-0.7,0.7-0.7h54.4c0.4,0,0.7,0.3,0.7,0.7
		C-53.6,16.8-53.9,17.1-54.3,17.1z"/>
	<path class="st0" d="M-103.6,13c-1,0-1.7-0.8-1.7-1.7c0-1,0.8-1.7,1.7-1.7s1.7,0.8,1.7,1.7C-101.8,12.2-102.6,13-103.6,13z
		 M-103.6,10.9c-0.2,0-0.3,0.1-0.3,0.3s0.1,0.3,0.3,0.3c0.2,0,0.3-0.1,0.3-0.3S-103.4,10.9-103.6,10.9z"/>
	<path class="st0" d="M-97.4,13c-1,0-1.7-0.8-1.7-1.7c0-1,0.8-1.7,1.7-1.7s1.7,0.8,1.7,1.7C-95.7,12.2-96.4,13-97.4,13z M-97.4,10.9
		c-0.2,0-0.3,0.1-0.3,0.3s0.1,0.3,0.3,0.3c0.2,0,0.3-0.1,0.3-0.3S-97.2,10.9-97.4,10.9z"/>
	<path class="st0" d="M-91.2,13c-1,0-1.7-0.8-1.7-1.7c0-1,0.8-1.7,1.7-1.7s1.7,0.8,1.7,1.7C-89.5,12.2-90.3,13-91.2,13z M-91.2,10.9
		c-0.2,0-0.3,0.1-0.3,0.3s0.1,0.3,0.3,0.3c0.2,0,0.3-0.1,0.3-0.3S-91,10.9-91.2,10.9z"/>
	<path class="st0" d="M-56.3,58.3h-46.2c-0.4,0-0.7-0.3-0.7-0.7s0.3-0.7,0.7-0.7h46.2c0.7,0,1.3-0.6,1.3-1.3V26.7
		c0-0.4,0.3-0.7,0.7-0.7c0.4,0,0.7,0.3,0.7,0.7v28.8C-53.6,57-54.8,58.3-56.3,58.3z"/>
</g>
<g>
	<path class="st0" d="M46,46.2h-5c-0.4,0-0.8-0.3-0.8-0.8s0.3-0.8,0.8-0.8h5c7.3,0,13.2-5.9,13.2-13.2S53.3,18.2,46,18.2
		c-10.3,0-14.2,13.3-14.3,13.5c0,0.1-1.1,3.7-3.5,7.2c-3.3,4.8-7.5,7.3-12.2,7.3c-8.1,0-14.8-6.6-14.8-14.8S7.9,16.8,16,16.8h5
		c0.4,0,0.8,0.3,0.8,0.8s-0.3,0.8-0.8,0.8h-5c-7.3,0-13.2,5.9-13.2,13.2S8.7,44.8,16,44.8c10.3,0,14.2-13.3,14.3-13.5
		c0-0.1,1.1-3.7,3.5-7.2c3.3-4.8,7.5-7.3,12.2-7.3c8.1,0,14.8,6.6,14.8,14.8S54.1,46.2,46,46.2z"/>
	<path class="st0" d="M31,31.5"/>
	<path class="st0" d="M15,24.2c-0.2,0-0.4-0.1-0.5-0.2c-0.3-0.3-0.3-0.8,0-1.1l5.5-5.5L14.5,12c-0.3-0.3-0.3-0.8,0-1.1
		s0.8-0.3,1.1,0l6,6c0.3,0.3,0.3,0.8,0,1.1l-6,6C15.4,24.2,15.2,24.2,15,24.2z"/>
	<path class="st0" d="M47,52.2c-0.2,0-0.4-0.1-0.5-0.2l-6-6c-0.3-0.3-0.3-0.8,0-1.1l6-6c0.3-0.3,0.8-0.3,1.1,0s0.3,0.8,0,1.1
		l-5.5,5.5l5.5,5.5c0.3,0.3,0.3,0.8,0,1.1C47.4,52.2,47.2,52.2,47,52.2z"/>
</g>
<g>
	<path class="st0" d="M149.7,15.2c-0.2,0-0.4-0.1-0.5-0.2s-0.2-0.3-0.2-0.5c0-0.2,0.1-0.4,0.2-0.5c0.3-0.3,0.8-0.3,1.1,0
		c0.1,0.1,0.2,0.3,0.2,0.5c0,0.2-0.1,0.4-0.2,0.5C150,15.2,149.8,15.2,149.7,15.2z"/>
	<path class="st0" d="M149.7,49.2c-0.2,0-0.4-0.1-0.5-0.2s-0.2-0.3-0.2-0.5c0-0.2,0.1-0.4,0.2-0.5c0.3-0.3,0.8-0.3,1.1,0
		c0.1,0.1,0.2,0.3,0.2,0.5c0,0.2-0.1,0.4-0.2,0.5C150,49.2,149.9,49.2,149.7,49.2z"/>
	<path class="st0" d="M166.7,32.2c-0.2,0-0.4-0.1-0.5-0.2c-0.1-0.1-0.2-0.3-0.2-0.5c0-0.2,0.1-0.4,0.2-0.5c0.3-0.3,0.8-0.3,1.1,0
		c0.1,0.1,0.2,0.3,0.2,0.5c0,0.2-0.1,0.4-0.2,0.5C167,32.2,166.9,32.2,166.7,32.2z"/>
	<path class="st0" d="M132.7,32.2c-0.2,0-0.4-0.1-0.5-0.2s-0.2-0.3-0.2-0.5c0-0.2,0.1-0.4,0.2-0.5c0.3-0.3,0.8-0.3,1.1,0
		c0.1,0.1,0.2,0.3,0.2,0.5c0,0.2-0.1,0.4-0.2,0.5C133,32.2,132.9,32.2,132.7,32.2z"/>
	<path class="st0" d="M149.7,34.2c-1.5,0-2.8-1.2-2.8-2.8s1.2-2.8,2.8-2.8s2.8,1.2,2.8,2.8S151.2,34.2,149.7,34.2z M149.7,30.2
		c-0.7,0-1.2,0.6-1.2,1.2s0.6,1.2,1.2,1.2s1.2-0.6,1.2-1.2S150.4,30.2,149.7,30.2z"/>
	<path class="st0" d="M149.7,30.2c-0.4,0-0.8-0.3-0.8-0.8v-10c0-0.4,0.3-0.8,0.8-0.8s0.8,0.3,0.8,0.8v10
		C150.4,29.9,150.1,30.2,149.7,30.2z"/>
	<path class="st0" d="M160.7,32.2h-9c-0.4,0-0.8-0.3-0.8-0.8s0.3-0.8,0.8-0.8h9c0.4,0,0.8,0.3,0.8,0.8S161.1,32.2,160.7,32.2z"/>
	<g>
		<path class="st0" d="M149.7,57.2c-14.2,0-25.8-11.6-25.8-25.8c0-0.4,0.3-0.8,0.8-0.8s0.8,0.3,0.8,0.8c0,13.4,10.9,24.2,24.2,24.2
			s24.2-10.9,24.2-24.2S163,7.2,149.7,7.2c-7.7,0-14.8,3.5-19.4,9.7c-0.2,0.3-0.7,0.4-1,0.1c-0.3-0.2-0.4-0.7-0.1-1.1
			c4.9-6.5,12.4-10.3,20.6-10.3c14.2,0,25.8,11.6,25.8,25.8S163.9,57.2,149.7,57.2z"/>
		<path class="st0" d="M139.7,17.2h-10c-0.4,0-0.8-0.3-0.8-0.8v-10c0-0.4,0.3-0.8,0.8-0.8s0.8,0.3,0.8,0.8v9.2h9.2
			c0.4,0,0.8,0.3,0.8,0.8S140.1,17.2,139.7,17.2z"/>
	</g>
</g>
<path class="st0" d="M266.6,52.3h-29.6c-1.5,0-2.8-1.2-2.8-2.8v-40c0-1.5,1.2-2.8,2.8-2.8h47c1.5,0,2.8,1.2,2.8,2.8V32
	c0,0.4-0.3,0.8-0.8,0.8s-0.8-0.3-0.8-0.8V9.5c0-0.7-0.6-1.2-1.2-1.2h-47c-0.7,0-1.2,0.6-1.2,1.2v40c0,0.7,0.6,1.2,1.2,1.2h29.6
	c0.4,0,0.8,0.3,0.8,0.8S267.1,52.3,266.6,52.3z"/>
<g>
	<path class="st0" d="M279.9,58.5C279.9,58.5,279.9,58.5,279.9,58.5c-0.3,0-0.5-0.1-0.6-0.3c-0.5-0.7-1.7-1.7-3.2-2.9
		c-3.6-2.8-8.5-6.7-8.9-11.9c-0.3-3.9,2.5-6.7,5.4-7.5c2.4-0.6,5.4,0,7.4,3.2c2.2-3.2,5.2-3.7,7.5-3.1c3.2,0.9,5.4,3.9,5.2,7.4
		c-0.3,5.1-5.3,9.1-8.9,12c-1.5,1.2-2.7,2.2-3.2,2.9C280.4,58.4,280.2,58.5,279.9,58.5z M274.2,37.2c-0.4,0-0.9,0.1-1.3,0.2
		c-2.3,0.6-4.5,2.8-4.2,5.9c0.3,4.5,5,8.2,8.3,10.9c1.2,0.9,2.2,1.7,2.9,2.5c0.7-0.7,1.7-1.5,2.9-2.5c3.4-2.7,8.1-6.4,8.3-10.9
		c0.2-3.2-2-5.3-4.1-5.9c-2.6-0.7-5,0.6-6.5,3.5c-0.1,0.3-0.4,0.4-0.7,0.4c-0.3,0-0.5-0.2-0.7-0.4C278,38.1,276,37.2,274.2,37.2z"/>
</g>
<g>
	<path class="st0" d="M235.1,48.9c-0.2,0-0.4-0.1-0.5-0.2c-0.3-0.3-0.3-0.8,0-1.1l16.1-17.5c0.1-0.2,0.4-0.3,0.6-0.2
		c0.2,0,0.4,0.1,0.6,0.3l4.8,6.3c0.3,0.3,0.2,0.8-0.1,1.1c-0.3,0.3-0.8,0.2-1.1-0.1l-4.3-5.6l-15.5,16.9
		C235.5,48.8,235.3,48.9,235.1,48.9z"/>
	<path class="st0" d="M245.7,52c-0.2,0-0.3,0-0.4-0.1c-0.3-0.2-0.4-0.7-0.2-1L270.7,16c0.1-0.2,0.4-0.3,0.6-0.3
		c0.2,0,0.5,0.1,0.6,0.3l10.6,16.5c0.2,0.3,0.1,0.8-0.2,1c-0.4,0.2-0.8,0.1-1-0.2l-10-15.6l-24.9,34C246.2,51.9,246,52,245.7,52z"/>
	<path class="st0" d="M262.1,29.6c-0.3,0-0.5-0.1-0.7-0.4c-0.2-0.4-0.1-0.8,0.3-1l6.1-3.5c0.3-0.2,0.7-0.1,1,0.2l2.1,2.8l2.4-2.7
		c0.2-0.3,0.6-0.3,1-0.1l5.1,3.1c0.4,0.2,0.5,0.7,0.2,1c-0.2,0.4-0.7,0.5-1,0.2l-4.5-2.8l-2.6,2.9c-0.1,0.2-0.3,0.3-0.6,0.3
		c-0.2,0-0.4-0.1-0.6-0.3l-2.3-3l-5.5,3.2C262.4,29.6,262.3,29.6,262.1,29.6z"/>
</g>
<g>
	<path class="st0" d="M243.6,27.2c-0.1,0-0.2,0-0.3-0.1c-0.4-0.2-0.5-0.6-0.4-1l0.7-1.6c0.2-0.4,0.6-0.5,1-0.4
		c0.4,0.2,0.5,0.6,0.4,1l-0.7,1.6C244.1,27.1,243.8,27.2,243.6,27.2z"/>
	<path class="st0" d="M250,12.9c-0.1,0-0.2,0-0.3-0.1c-0.4-0.2-0.5-0.6-0.4-1l0.7-1.6c0.2-0.4,0.6-0.5,1-0.4c0.4,0.2,0.5,0.6,0.4,1
		l-0.7,1.6C250.5,12.7,250.3,12.9,250,12.9z"/>
	<path class="st0" d="M240.7,16.4c-0.1,0-0.2,0-0.3-0.1l-1.6-0.7c-0.4-0.2-0.5-0.6-0.4-1c0.2-0.4,0.6-0.5,1-0.4L241,15
		c0.4,0.2,0.5,0.6,0.4,1C241.3,16.2,241,16.4,240.7,16.4z"/>
	<path class="st0" d="M255.1,22.8c-0.1,0-0.2,0-0.3-0.1l-1.6-0.7c-0.4-0.2-0.5-0.6-0.4-1c0.2-0.4,0.6-0.5,1-0.4l1.6,0.7
		c0.4,0.2,0.5,0.6,0.4,1C255.7,22.7,255.4,22.8,255.1,22.8z"/>
	<path class="st0" d="M239,22.4c-0.3,0-0.6-0.2-0.7-0.5c-0.1-0.4,0-0.8,0.4-1l1.6-0.6c0.4-0.1,0.8,0,1,0.4c0.1,0.4,0,0.8-0.4,1
		l-1.6,0.6C239.1,22.4,239,22.4,239,22.4z"/>
	<path class="st0" d="M253.7,16.8c-0.3,0-0.6-0.2-0.7-0.5c-0.1-0.4,0-0.8,0.4-1l1.6-0.6c0.4-0.1,0.8,0,1,0.4c0.1,0.4,0,0.8-0.4,1
		l-1.6,0.6C253.8,16.7,253.8,16.8,253.7,16.8z"/>
	<path class="st0" d="M244.6,12.7c-0.3,0-0.6-0.2-0.7-0.5l-0.6-1.6c-0.1-0.4,0-0.8,0.4-1s0.8,0,1,0.4l0.6,1.6c0.1,0.4,0,0.8-0.4,1
		C244.8,12.7,244.7,12.7,244.6,12.7z"/>
	<path class="st0" d="M250.2,27.4c-0.3,0-0.6-0.2-0.7-0.5l-0.6-1.6c-0.1-0.4,0-0.8,0.4-1c0.4-0.1,0.8,0,1,0.4l0.6,1.6
		c0.1,0.4,0,0.8-0.4,1C250.4,27.4,250.3,27.4,250.2,27.4z"/>
	<path class="st0" d="M247.1,22.8c-0.6,0-1.2-0.1-1.7-0.4c-1-0.5-1.8-1.3-2.2-2.4c-0.4-1.1-0.4-2.2,0.1-3.3c1-2.1,3.5-3.1,5.6-2.1
		c1,0.5,1.8,1.3,2.2,2.4c0.4,1.1,0.4,2.2-0.1,3.3c-0.5,1-1.3,1.8-2.4,2.2C248.1,22.7,247.6,22.8,247.1,22.8z M247.1,15.8
		c-1.1,0-2.1,0.6-2.5,1.6c-0.3,0.7-0.3,1.4-0.1,2.1c0.3,0.7,0.8,1.2,1.4,1.5c0.7,0.3,1.4,0.3,2.1,0.1c0.7-0.3,1.2-0.8,1.5-1.4
		s0.3-1.4,0.1-2.1c-0.3-0.7-0.8-1.2-1.4-1.5C247.9,15.8,247.5,15.8,247.1,15.8z"/>
</g>
</svg>
