<?xml version="1.0" encoding="utf-8"?>
<!-- Generator: Adobe Illustrator 19.2.0, SVG Export Plug-In . SVG Version: 6.00 Build 0)  -->
<svg version="1.1" id="Layer_1" xmlns="http://www.w3.org/2000/svg" xmlns:xlink="http://www.w3.org/1999/xlink" x="0px" y="0px"
	 viewBox="0 0 63 63" style="enable-background:new 0 0 63 63;" xml:space="preserve">
<style type="text/css">
	.st0{fill:#02868B;}
</style>
<g>
	<path class="st0" d="M-391.4,56.6h-44c-1.4,0-2.6-1.2-2.6-2.6V26c0-1.4,1.2-2.6,2.6-2.6h44c1.4,0,2.6,1.2,2.6,2.6v28
		C-388.8,55.4-389.9,56.6-391.4,56.6z M-435.4,24.6c-0.8,0-1.4,0.6-1.4,1.4v28c0,0.8,0.6,1.4,1.4,1.4h44c0.8,0,1.4-0.6,1.4-1.4V26
		c0-0.8-0.6-1.4-1.4-1.4H-435.4z"/>
	<path class="st0" d="M-428.4,34.6h-4c-0.9,0-1.6-0.7-1.6-1.6v-4c0-0.9,0.7-1.6,1.6-1.6h4c0.9,0,1.6,0.7,1.6,1.6v4
		C-426.8,33.9-427.5,34.6-428.4,34.6z M-432.4,28.6c-0.2,0-0.4,0.2-0.4,0.4v4c0,0.2,0.2,0.4,0.4,0.4h4c0.2,0,0.4-0.2,0.4-0.4v-4
		c0-0.2-0.2-0.4-0.4-0.4H-432.4z"/>
	<path class="st0" d="M-397.4,52.6c-1.1,0-2.2-0.4-3-1.1c-0.8,0.7-1.9,1.1-3,1.1c-2.5,0-4.6-2.1-4.6-4.6s2.1-4.6,4.6-4.6
		c1.1,0,2.2,0.4,3,1.1c0.8-0.7,1.9-1.1,3-1.1c2.5,0,4.6,2.1,4.6,4.6S-394.8,52.6-397.4,52.6z M-400.4,50c0.2,0,0.4,0.1,0.5,0.2
		c0.6,0.7,1.6,1.2,2.5,1.2c1.9,0,3.4-1.5,3.4-3.4s-1.5-3.4-3.4-3.4c-1,0-1.9,0.4-2.5,1.2c-0.2,0.3-0.7,0.3-0.9,0
		c-0.6-0.7-1.6-1.2-2.5-1.2c-1.9,0-3.4,1.5-3.4,3.4s1.5,3.4,3.4,3.4c1,0,1.9-0.4,2.5-1.2C-400.7,50.1-400.6,50-400.4,50z"/>
	<path class="st0" d="M-413.4,52.6h-18c-0.3,0-0.6-0.3-0.6-0.6s0.3-0.6,0.6-0.6h18c0.3,0,0.6,0.3,0.6,0.6S-413,52.6-413.4,52.6z"/>
	<path class="st0" d="M-427.4,48.6h-4c-0.3,0-0.6-0.3-0.6-0.6s0.3-0.6,0.6-0.6h4c0.3,0,0.6,0.3,0.6,0.6S-427,48.6-427.4,48.6z"/>
	<path class="st0" d="M-431.4,40.6c-0.3,0-0.6-0.3-0.6-0.6v-1c0-0.3,0.3-0.6,0.6-0.6s0.6,0.3,0.6,0.6v1
		C-430.8,40.3-431,40.6-431.4,40.6z"/>
	<path class="st0" d="M-427.4,40.6c-0.3,0-0.6-0.3-0.6-0.6v-1c0-0.3,0.3-0.6,0.6-0.6s0.6,0.3,0.6,0.6v1
		C-426.8,40.3-427,40.6-427.4,40.6z"/>
	<path class="st0" d="M-423.4,40.6c-0.3,0-0.6-0.3-0.6-0.6v-1c0-0.3,0.3-0.6,0.6-0.6s0.6,0.3,0.6,0.6v1
		C-422.8,40.3-423,40.6-423.4,40.6z"/>
	<path class="st0" d="M-411.4,40.6c-0.3,0-0.6-0.3-0.6-0.6v-1c0-0.3,0.3-0.6,0.6-0.6s0.6,0.3,0.6,0.6v1
		C-410.8,40.3-411,40.6-411.4,40.6z"/>
	<path class="st0" d="M-399.4,40.6c-0.3,0-0.6-0.3-0.6-0.6v-1c0-0.3,0.3-0.6,0.6-0.6s0.6,0.3,0.6,0.6v1
		C-398.8,40.3-399,40.6-399.4,40.6z"/>
	<path class="st0" d="M-419.4,40.6c-0.3,0-0.6-0.3-0.6-0.6v-1c0-0.3,0.3-0.6,0.6-0.6s0.6,0.3,0.6,0.6v1
		C-418.8,40.3-419,40.6-419.4,40.6z"/>
	<path class="st0" d="M-415.4,40.6c-0.3,0-0.6-0.3-0.6-0.6v-1c0-0.3,0.3-0.6,0.6-0.6s0.6,0.3,0.6,0.6v1
		C-414.8,40.3-415,40.6-415.4,40.6z"/>
	<path class="st0" d="M-407.4,40.6c-0.3,0-0.6-0.3-0.6-0.6v-1c0-0.3,0.3-0.6,0.6-0.6s0.6,0.3,0.6,0.6v1
		C-406.8,40.3-407,40.6-407.4,40.6z"/>
	<path class="st0" d="M-403.4,40.6c-0.3,0-0.6-0.3-0.6-0.6v-1c0-0.3,0.3-0.6,0.6-0.6s0.6,0.3,0.6,0.6v1
		C-402.8,40.3-403,40.6-403.4,40.6z"/>
	<path class="st0" d="M-395.4,40.6c-0.3,0-0.6-0.3-0.6-0.6v-1c0-0.3,0.3-0.6,0.6-0.6s0.6,0.3,0.6,0.6v1
		C-394.8,40.3-395,40.6-395.4,40.6z"/>
	<path class="st0" d="M-419.4,48.6h-4c-0.3,0-0.6-0.3-0.6-0.6s0.3-0.6,0.6-0.6h4c0.3,0,0.6,0.3,0.6,0.6S-419,48.6-419.4,48.6z"/>
	<path class="st0" d="M-437.4,38.6h-8c-1.4,0-2.6-1.2-2.6-2.6V8c0-1.4,1.2-2.6,2.6-2.6h44c1.4,0,2.6,1.2,2.6,2.6v16
		c0,0.3-0.3,0.6-0.6,0.6h-36c-0.8,0-1.4,0.6-1.4,1.4v12C-436.8,38.3-437,38.6-437.4,38.6z M-445.4,6.6c-0.8,0-1.4,0.6-1.4,1.4v28
		c0,0.8,0.6,1.4,1.4,1.4h7.4V26c0-1.4,1.2-2.6,2.6-2.6h35.4V8c0-0.8-0.6-1.4-1.4-1.4H-445.4z"/>
	<path class="st0" d="M-399.4,18.6h-48c-0.3,0-0.6-0.3-0.6-0.6v-6c0-0.3,0.3-0.6,0.6-0.6h48c0.3,0,0.6,0.3,0.6,0.6v6
		C-398.8,18.3-399,18.6-399.4,18.6z M-446.8,17.4h46.8v-4.8h-46.8V17.4z"/>
	<path class="st0" d="M-447.4,18.6c-0.2,0-0.3-0.1-0.4-0.2c-0.2-0.2-0.2-0.6,0-0.9l6-6c0.2-0.2,0.6-0.2,0.9,0s0.2,0.6,0,0.9l-6,6
		C-447.1,18.6-447.2,18.6-447.4,18.6z"/>
	<path class="st0" d="M-441.4,18.6c-0.2,0-0.3-0.1-0.4-0.2c-0.2-0.2-0.2-0.6,0-0.9l6-6c0.2-0.2,0.6-0.2,0.9,0s0.2,0.6,0,0.9l-6,6
		C-441.1,18.6-441.2,18.6-441.4,18.6z"/>
	<path class="st0" d="M-435.4,18.6c-0.2,0-0.3-0.1-0.4-0.2c-0.2-0.2-0.2-0.6,0-0.9l6-6c0.2-0.2,0.6-0.2,0.9,0s0.2,0.6,0,0.9l-6,6
		C-435.1,18.6-435.2,18.6-435.4,18.6z"/>
	<path class="st0" d="M-429.4,18.6c-0.2,0-0.3-0.1-0.4-0.2c-0.2-0.2-0.2-0.6,0-0.9l6-6c0.2-0.2,0.6-0.2,0.9,0s0.2,0.6,0,0.9l-6,6
		C-429.1,18.6-429.2,18.6-429.4,18.6z"/>
	<path class="st0" d="M-423.4,18.6c-0.2,0-0.3-0.1-0.4-0.2c-0.2-0.2-0.2-0.6,0-0.9l6-6c0.2-0.2,0.6-0.2,0.9,0c0.2,0.2,0.2,0.6,0,0.9
		l-6,6C-423.1,18.6-423.2,18.6-423.4,18.6z"/>
	<path class="st0" d="M-417.4,18.6c-0.2,0-0.3-0.1-0.4-0.2c-0.2-0.2-0.2-0.6,0-0.9l6-6c0.2-0.2,0.6-0.2,0.9,0c0.2,0.2,0.2,0.6,0,0.9
		l-6,6C-417.1,18.6-417.2,18.6-417.4,18.6z"/>
	<path class="st0" d="M-411.4,18.6c-0.2,0-0.3-0.1-0.4-0.2c-0.2-0.2-0.2-0.6,0-0.9l6-6c0.2-0.2,0.6-0.2,0.9,0c0.2,0.2,0.2,0.6,0,0.9
		l-6,6C-411.1,18.6-411.2,18.6-411.4,18.6z"/>
	<path class="st0" d="M-405.4,18.6c-0.2,0-0.3-0.1-0.4-0.2c-0.2-0.2-0.2-0.6,0-0.9l6-6c0.2-0.2,0.6-0.2,0.9,0c0.2,0.2,0.2,0.6,0,0.9
		l-6,6C-405.1,18.6-405.2,18.6-405.4,18.6z"/>
</g>
<g>
	<path class="st0" d="M-320.5,49.3c-4.8,0-8.8-3.9-8.8-8.8s3.9-8.8,8.8-8.8s8.8,3.9,8.8,8.8S-315.7,49.3-320.5,49.3z M-320.5,33.3
		c-4,0-7.2,3.3-7.2,7.2s3.3,7.2,7.2,7.2s7.2-3.3,7.2-7.2S-316.5,33.3-320.5,33.3z"/>
	<path class="st0" d="M-320.5,45.3c-2.6,0-4.8-2.1-4.8-4.8s2.1-4.8,4.8-4.8s4.8,2.1,4.8,4.8S-317.9,45.3-320.5,45.3z M-320.5,37.3
		c-1.8,0-3.2,1.5-3.2,3.2s1.5,3.2,3.2,3.2s3.2-1.5,3.2-3.2S-318.7,37.3-320.5,37.3z"/>
	<path class="st0" d="M-296.5,21.3c-1.2,0-2.4-0.5-3.4-1.4c-1.9-1.9-1.9-4.9,0-6.7c1.9-1.9,4.9-1.9,6.7,0c0.9,0.9,1.4,2.1,1.4,3.4
		c0,1.3-0.5,2.5-1.4,3.4C-294.1,20.8-295.3,21.3-296.5,21.3z M-296.5,13.3c-0.8,0-1.7,0.3-2.3,1c-1.3,1.3-1.3,3.3,0,4.6
		c1.3,1.3,3.3,1.3,4.6,0c0.6-0.6,1-1.4,1-2.3c0-0.9-0.3-1.7-1-2.3C-294.9,13.6-295.7,13.3-296.5,13.3z"/>
	<path class="st0" d="M-317.9,59.3h-5.3c-0.3,0-0.6-0.2-0.7-0.5l-1.4-4.3c-0.5-0.2-1.1-0.4-1.6-0.7l-4.1,2c-0.3,0.1-0.6,0.1-0.9-0.1
		l-3.8-3.8c-0.2-0.2-0.3-0.6-0.1-0.9l2-4.1c-0.3-0.5-0.5-1.1-0.7-1.6l-4.3-1.4c-0.3-0.1-0.5-0.4-0.5-0.7v-5.3c0-0.3,0.2-0.6,0.5-0.7
		l4.3-1.4c0.2-0.5,0.4-1.1,0.7-1.6l-2-4.1c-0.1-0.3-0.1-0.6,0.1-0.9l3.8-3.8c0.2-0.2,0.6-0.3,0.9-0.1l4.1,2c0.5-0.3,1.1-0.5,1.6-0.7
		l1.4-4.3c0.1-0.3,0.4-0.5,0.7-0.5h5.3c0.3,0,0.6,0.2,0.7,0.5l1.4,4.3c0.5,0.2,1.1,0.4,1.6,0.7l4.1-2c0.3-0.1,0.6-0.1,0.9,0.1
		l3.8,3.8c0.2,0.2,0.3,0.6,0.1,0.9l-2,4.1c0.3,0.5,0.5,1.1,0.7,1.6l4.3,1.4c0.3,0.1,0.5,0.4,0.5,0.7v5.3c0,0.3-0.2,0.6-0.5,0.7
		l-4.3,1.4c-0.2,0.5-0.4,1.1-0.7,1.6l2,4.1c0.1,0.3,0.1,0.6-0.1,0.9l-3.8,3.8c-0.2,0.2-0.6,0.3-0.9,0.1l-4.1-2
		c-0.5,0.3-1.1,0.5-1.6,0.7l-1.4,4.3C-317.2,59.1-317.5,59.3-317.9,59.3z M-322.7,57.8h4.3l1.4-4.1c0.1-0.2,0.3-0.4,0.5-0.5
		c0.7-0.2,1.4-0.5,2.1-0.9c0.2-0.1,0.5-0.1,0.7,0l3.9,2l3-3l-2-3.9c-0.1-0.2-0.1-0.5,0-0.7c0.4-0.7,0.7-1.4,0.9-2.1
		c0.1-0.2,0.3-0.4,0.5-0.5l4.1-1.4v-4.3l-4.1-1.4c-0.2-0.1-0.4-0.3-0.5-0.5c-0.2-0.7-0.5-1.4-0.9-2.1c-0.1-0.2-0.1-0.5,0-0.7l2-3.9
		l-3-3l-3.9,2c-0.2,0.1-0.5,0.1-0.7,0c-0.7-0.4-1.4-0.7-2.1-0.9c-0.2-0.1-0.4-0.3-0.5-0.5l-1.4-4.1h-4.3l-1.4,4.1
		c-0.1,0.2-0.3,0.4-0.5,0.5c-0.7,0.2-1.4,0.5-2.1,0.9c-0.2,0.1-0.5,0.1-0.7,0l-3.9-2l-3,3l2,3.9c0.1,0.2,0.1,0.5,0,0.7
		c-0.4,0.7-0.7,1.4-0.9,2.1c-0.1,0.2-0.2,0.4-0.5,0.5l-4.1,1.4v4.3l4.1,1.4c0.2,0.1,0.4,0.3,0.5,0.5c0.2,0.7,0.5,1.4,0.9,2.1
		c0.1,0.2,0.1,0.5,0,0.7l-2,3.9l3,3l3.9-2c0.2-0.1,0.5-0.1,0.7,0c0.7,0.4,1.4,0.7,2.1,0.9c0.2,0.1,0.4,0.2,0.5,0.5L-322.7,57.8z
		 M-302.5,43.2L-302.5,43.2L-302.5,43.2z"/>
	<path class="st0" d="M-297.9,29.3c-0.1,0-0.1,0-0.2,0l-3.4-0.9c-0.3-0.1-0.5-0.4-0.6-0.7l-0.2-2.9c-0.5-0.3-1-0.7-1.4-1.2
		c0,0,0,0,0,0c-0.4-0.4-0.8-0.9-1.2-1.4l-2.9-0.2c-0.3,0-0.6-0.2-0.7-0.6l-0.9-3.4c-0.1-0.3,0-0.6,0.3-0.8l2.4-1.6
		c0.1-1.2,0.4-2.4,0.9-3.5l-1.3-2.6c-0.1-0.3-0.1-0.6,0.1-0.9l2.5-2.5c0.2-0.2,0.6-0.3,0.9-0.1l2.6,1.3c1.1-0.5,2.2-0.8,3.5-0.9
		l1.6-2.4c0.2-0.3,0.5-0.4,0.8-0.3l3.4,0.9c0.3,0.1,0.5,0.4,0.6,0.7l0.2,2.9c0.5,0.3,1,0.7,1.4,1.2c0.4,0.4,0.8,0.9,1.2,1.4l2.9,0.2
		c0.3,0,0.6,0.2,0.7,0.6l0.9,3.4c0.1,0.3,0,0.6-0.3,0.8l-2.4,1.6c-0.1,1.2-0.4,2.4-0.9,3.5l1.3,2.6c0.1,0.3,0.1,0.6-0.1,0.9
		l-2.5,2.5c-0.2,0.2-0.6,0.3-0.9,0.1l-2.6-1.3c-1.1,0.5-2.2,0.8-3.5,0.9l-1.6,2.4C-297.4,29.2-297.7,29.3-297.9,29.3z M-300.6,27.1
		l2.4,0.6l1.5-2.3c0.1-0.2,0.4-0.3,0.6-0.3c1.3-0.1,2.5-0.4,3.6-0.9c0.2-0.1,0.5-0.1,0.7,0l2.4,1.2l1.8-1.7l-1.2-2.4
		c-0.1-0.2-0.1-0.5,0-0.7c0.6-1.1,0.9-2.3,0.9-3.6c0-0.2,0.1-0.5,0.3-0.6l2.3-1.5l-0.6-2.4l-2.7-0.2c-0.2,0-0.5-0.1-0.6-0.3
		c-0.3-0.5-0.7-1-1.2-1.5c-0.4-0.4-0.9-0.8-1.5-1.2c-0.2-0.1-0.3-0.3-0.3-0.6l-0.2-2.7l-2.4-0.6l-1.5,2.3c-0.1,0.2-0.4,0.3-0.6,0.3
		c-1.3,0.1-2.5,0.4-3.6,0.9c-0.2,0.1-0.5,0.1-0.7,0l-2.4-1.2l-1.7,1.7l1.2,2.4c0.1,0.2,0.1,0.5,0,0.7c-0.6,1.1-0.9,2.3-0.9,3.6
		c0,0.2-0.1,0.5-0.3,0.6l-2.3,1.5l0.6,2.4l2.7,0.2c0.2,0,0.5,0.1,0.6,0.3c0.3,0.5,0.7,1,1.2,1.5c0.4,0.4,0.9,0.8,1.5,1.2
		c0.2,0.1,0.3,0.3,0.3,0.6L-300.6,27.1z"/>
</g>
<g>
	<path class="st0" d="M-218.6,29c-0.2,0-0.4-0.1-0.5-0.2l-1.9-1.9c-0.3-0.3-0.3-0.7,0-1c0.3-0.3,0.7-0.3,1,0l1.3,1.3l3.3-5
		c0.2-0.3,0.7-0.4,1-0.2c0.3,0.2,0.4,0.7,0.2,1l-3.8,5.7C-218.1,28.9-218.3,29-218.6,29C-218.5,29-218.5,29-218.6,29z"/>
	<path class="st0" d="M-178.8,27.1h-30.3c-0.4,0-0.7-0.3-0.7-0.7c0-0.4,0.3-0.7,0.7-0.7h30.3c0.4,0,0.7,0.3,0.7,0.7
		C-178,26.8-178.4,27.1-178.8,27.1z"/>
	<path class="st0" d="M-218.6,40.4c-0.2,0-0.4-0.1-0.5-0.2l-1.9-1.9c-0.3-0.3-0.3-0.7,0-1c0.3-0.3,0.7-0.3,1,0l1.3,1.3l3.3-5
		c0.2-0.3,0.7-0.4,1-0.2c0.3,0.2,0.4,0.7,0.2,1L-218,40C-218.1,40.2-218.3,40.3-218.6,40.4C-218.5,40.4-218.5,40.4-218.6,40.4z"/>
	<path class="st0" d="M-178.8,38.5h-30.3c-0.4,0-0.7-0.3-0.7-0.7s0.3-0.7,0.7-0.7h30.3c0.4,0,0.7,0.3,0.7,0.7
		S-178.4,38.5-178.8,38.5z"/>
	<path class="st0" d="M-218.6,51.7c-0.2,0-0.4-0.1-0.5-0.2l-1.9-1.9c-0.3-0.3-0.3-0.7,0-1c0.3-0.3,0.7-0.3,1,0l1.3,1.3l3.3-5
		c0.2-0.3,0.7-0.4,1-0.2c0.3,0.2,0.4,0.7,0.2,1l-3.8,5.7C-218.1,51.6-218.3,51.7-218.6,51.7C-218.5,51.7-218.5,51.7-218.6,51.7z"/>
	<path class="st0" d="M-178.8,49.8h-30.3c-0.4,0-0.7-0.3-0.7-0.7s0.3-0.7,0.7-0.7h30.3c0.4,0,0.7,0.3,0.7,0.7
		S-178.4,49.8-178.8,49.8z"/>
</g>
<g>
	<path class="st0" d="M-195.8,58.3h-28.8c-1.5,0-2.8-1.2-2.8-2.8V8.2c0-1.5,1.2-2.8,2.8-2.8h50.3c1.5,0,2.8,1.2,2.8,2.8V37
		c0,0.4-0.3,0.7-0.7,0.7c-0.4,0-0.7-0.3-0.7-0.7V8.2c0-0.7-0.6-1.3-1.3-1.3h-50.3c-0.7,0-1.3,0.6-1.3,1.3v47.3
		c0,0.7,0.6,1.3,1.3,1.3h28.8c0.4,0,0.7,0.3,0.7,0.7S-195.5,58.3-195.8,58.3z"/>
	<path class="st0" d="M-172.3,17.1h-54.4c-0.4,0-0.7-0.3-0.7-0.7c0-0.4,0.3-0.7,0.7-0.7h54.4c0.4,0,0.7,0.3,0.7,0.7
		C-171.6,16.8-171.9,17.1-172.3,17.1z"/>
	<path class="st0" d="M-221.6,13c-1,0-1.7-0.8-1.7-1.7c0-1,0.8-1.7,1.7-1.7c1,0,1.7,0.8,1.7,1.7C-219.8,12.2-220.6,13-221.6,13z
		 M-221.6,10.9c-0.2,0-0.3,0.1-0.3,0.3s0.1,0.3,0.3,0.3c0.2,0,0.3-0.1,0.3-0.3S-221.4,10.9-221.6,10.9z"/>
	<path class="st0" d="M-215.4,13c-1,0-1.7-0.8-1.7-1.7c0-1,0.8-1.7,1.7-1.7s1.7,0.8,1.7,1.7C-213.7,12.2-214.4,13-215.4,13z
		 M-215.4,10.9c-0.2,0-0.3,0.1-0.3,0.3s0.1,0.3,0.3,0.3c0.2,0,0.3-0.1,0.3-0.3S-215.2,10.9-215.4,10.9z"/>
	<path class="st0" d="M-209.2,13c-1,0-1.7-0.8-1.7-1.7c0-1,0.8-1.7,1.7-1.7s1.7,0.8,1.7,1.7C-207.5,12.2-208.3,13-209.2,13z
		 M-209.2,10.9c-0.2,0-0.3,0.1-0.3,0.3s0.1,0.3,0.3,0.3c0.2,0,0.3-0.1,0.3-0.3S-209,10.9-209.2,10.9z"/>
	<path class="st0" d="M-174.3,58.3h-46.2c-0.4,0-0.7-0.3-0.7-0.7s0.3-0.7,0.7-0.7h46.2c0.7,0,1.3-0.6,1.3-1.3V26.7
		c0-0.4,0.3-0.7,0.7-0.7c0.4,0,0.7,0.3,0.7,0.7v28.8C-171.6,57-172.8,58.3-174.3,58.3z"/>
</g>
<g>
	<path class="st0" d="M-72,46.2h-5c-0.4,0-0.8-0.3-0.8-0.8s0.3-0.8,0.8-0.8h5c7.3,0,13.2-5.9,13.2-13.2S-64.7,18.2-72,18.2
		c-10.3,0-14.2,13.3-14.3,13.5c0,0.1-1.1,3.7-3.5,7.2c-3.3,4.8-7.5,7.3-12.2,7.3c-8.1,0-14.8-6.6-14.8-14.8s6.6-14.8,14.8-14.8h5
		c0.4,0,0.8,0.3,0.8,0.8s-0.3,0.8-0.8,0.8h-5c-7.3,0-13.2,5.9-13.2,13.2s5.9,13.2,13.2,13.2c10.3,0,14.2-13.3,14.3-13.5
		c0-0.1,1.1-3.7,3.5-7.2c3.3-4.8,7.5-7.3,12.2-7.3c8.1,0,14.8,6.6,14.8,14.8S-63.9,46.2-72,46.2z"/>
	<path class="st0" d="M-87,31.5"/>
	<path class="st0" d="M-103,24.2c-0.2,0-0.4-0.1-0.5-0.2c-0.3-0.3-0.3-0.8,0-1.1l5.5-5.5l-5.5-5.5c-0.3-0.3-0.3-0.8,0-1.1
		s0.8-0.3,1.1,0l6,6c0.3,0.3,0.3,0.8,0,1.1l-6,6C-102.6,24.2-102.8,24.2-103,24.2z"/>
	<path class="st0" d="M-71,52.2c-0.2,0-0.4-0.1-0.5-0.2l-6-6c-0.3-0.3-0.3-0.8,0-1.1l6-6c0.3-0.3,0.8-0.3,1.1,0s0.3,0.8,0,1.1
		l-5.5,5.5l5.5,5.5c0.3,0.3,0.3,0.8,0,1.1C-70.6,52.2-70.8,52.2-71,52.2z"/>
</g>
<g>
	<path class="st0" d="M31.7,15.2c-0.2,0-0.4-0.1-0.5-0.2s-0.2-0.3-0.2-0.5c0-0.2,0.1-0.4,0.2-0.5c0.3-0.3,0.8-0.3,1.1,0
		c0.1,0.1,0.2,0.3,0.2,0.5c0,0.2-0.1,0.4-0.2,0.5C32,15.2,31.8,15.2,31.7,15.2z"/>
	<path class="st0" d="M31.7,49.2c-0.2,0-0.4-0.1-0.5-0.2s-0.2-0.3-0.2-0.5c0-0.2,0.1-0.4,0.2-0.5c0.3-0.3,0.8-0.3,1.1,0
		c0.1,0.1,0.2,0.3,0.2,0.5c0,0.2-0.1,0.4-0.2,0.5C32,49.2,31.9,49.2,31.7,49.2z"/>
	<path class="st0" d="M48.7,32.2c-0.2,0-0.4-0.1-0.5-0.2c-0.1-0.1-0.2-0.3-0.2-0.5c0-0.2,0.1-0.4,0.2-0.5c0.3-0.3,0.8-0.3,1.1,0
		c0.1,0.1,0.2,0.3,0.2,0.5c0,0.2-0.1,0.4-0.2,0.5C49,32.2,48.9,32.2,48.7,32.2z"/>
	<path class="st0" d="M14.7,32.2c-0.2,0-0.4-0.1-0.5-0.2s-0.2-0.3-0.2-0.5c0-0.2,0.1-0.4,0.2-0.5c0.3-0.3,0.8-0.3,1.1,0
		c0.1,0.1,0.2,0.3,0.2,0.5c0,0.2-0.1,0.4-0.2,0.5C15,32.2,14.9,32.2,14.7,32.2z"/>
	<path class="st0" d="M31.7,34.2c-1.5,0-2.8-1.2-2.8-2.8s1.2-2.8,2.8-2.8s2.8,1.2,2.8,2.8S33.2,34.2,31.7,34.2z M31.7,30.2
		c-0.7,0-1.2,0.6-1.2,1.2s0.6,1.2,1.2,1.2s1.2-0.6,1.2-1.2S32.4,30.2,31.7,30.2z"/>
	<path class="st0" d="M31.7,30.2c-0.4,0-0.8-0.3-0.8-0.8v-10c0-0.4,0.3-0.8,0.8-0.8s0.8,0.3,0.8,0.8v10
		C32.4,29.9,32.1,30.2,31.7,30.2z"/>
	<path class="st0" d="M42.7,32.2h-9c-0.4,0-0.8-0.3-0.8-0.8s0.3-0.8,0.8-0.8h9c0.4,0,0.8,0.3,0.8,0.8S43.1,32.2,42.7,32.2z"/>
	<g>
		<path class="st0" d="M31.7,57.2c-14.2,0-25.8-11.6-25.8-25.8c0-0.4,0.3-0.8,0.8-0.8s0.8,0.3,0.8,0.8c0,13.4,10.9,24.2,24.2,24.2
			s24.2-10.9,24.2-24.2S45,7.2,31.7,7.2c-7.7,0-14.8,3.5-19.4,9.7c-0.2,0.3-0.7,0.4-1,0.1c-0.3-0.2-0.4-0.7-0.1-1.1
			C16,9.5,23.5,5.8,31.7,5.8c14.2,0,25.8,11.6,25.8,25.8S45.9,57.2,31.7,57.2z"/>
		<path class="st0" d="M21.7,17.2h-10c-0.4,0-0.8-0.3-0.8-0.8v-10c0-0.4,0.3-0.8,0.8-0.8s0.8,0.3,0.8,0.8v9.2h9.2
			c0.4,0,0.8,0.3,0.8,0.8S22.1,17.2,21.7,17.2z"/>
	</g>
</g>
<path class="st0" d="M148.6,52.3h-29.6c-1.5,0-2.8-1.2-2.8-2.8v-40c0-1.5,1.2-2.8,2.8-2.8h47c1.5,0,2.8,1.2,2.8,2.8V32
	c0,0.4-0.3,0.8-0.8,0.8s-0.8-0.3-0.8-0.8V9.5c0-0.7-0.6-1.2-1.2-1.2h-47c-0.7,0-1.2,0.6-1.2,1.2v40c0,0.7,0.6,1.2,1.2,1.2h29.6
	c0.4,0,0.8,0.3,0.8,0.8S149.1,52.3,148.6,52.3z"/>
<g>
	<path class="st0" d="M161.9,58.5C161.9,58.5,161.9,58.5,161.9,58.5c-0.3,0-0.5-0.1-0.6-0.3c-0.5-0.7-1.7-1.7-3.2-2.9
		c-3.6-2.8-8.5-6.7-8.9-11.9c-0.3-3.9,2.5-6.7,5.4-7.5c2.4-0.6,5.4,0,7.4,3.2c2.2-3.2,5.2-3.7,7.5-3.1c3.2,0.9,5.4,3.9,5.2,7.4
		c-0.3,5.1-5.3,9.1-8.9,12c-1.5,1.2-2.7,2.2-3.2,2.9C162.4,58.4,162.2,58.5,161.9,58.5z M156.2,37.2c-0.4,0-0.9,0.1-1.3,0.2
		c-2.3,0.6-4.5,2.8-4.2,5.9c0.3,4.5,5,8.2,8.3,10.9c1.2,0.9,2.2,1.7,2.9,2.5c0.7-0.7,1.7-1.5,2.9-2.5c3.4-2.7,8.1-6.4,8.3-10.9
		c0.2-3.2-2-5.3-4.1-5.9c-2.6-0.7-5,0.6-6.5,3.5c-0.1,0.3-0.4,0.4-0.7,0.4c-0.3,0-0.5-0.2-0.7-0.4C160,38.1,158,37.2,156.2,37.2z"/>
</g>
<g>
	<path class="st0" d="M117.1,48.9c-0.2,0-0.4-0.1-0.5-0.2c-0.3-0.3-0.3-0.8,0-1.1l16.1-17.5c0.1-0.2,0.4-0.3,0.6-0.2
		c0.2,0,0.4,0.1,0.6,0.3l4.8,6.3c0.3,0.3,0.2,0.8-0.1,1.1c-0.3,0.3-0.8,0.2-1.1-0.1l-4.3-5.6l-15.5,16.9
		C117.5,48.8,117.3,48.9,117.1,48.9z"/>
	<path class="st0" d="M127.7,52c-0.2,0-0.3,0-0.4-0.1c-0.3-0.2-0.4-0.7-0.2-1L152.7,16c0.1-0.2,0.4-0.3,0.6-0.3
		c0.2,0,0.5,0.1,0.6,0.3l10.6,16.5c0.2,0.3,0.1,0.8-0.2,1c-0.4,0.2-0.8,0.1-1-0.2l-10-15.6l-24.9,34C128.2,51.9,128,52,127.7,52z"/>
	<path class="st0" d="M144.1,29.6c-0.3,0-0.5-0.1-0.7-0.4c-0.2-0.4-0.1-0.8,0.3-1l6.1-3.5c0.3-0.2,0.7-0.1,1,0.2l2.1,2.8l2.4-2.7
		c0.2-0.3,0.6-0.3,1-0.1l5.1,3.1c0.4,0.2,0.5,0.7,0.2,1c-0.2,0.4-0.7,0.5-1,0.2l-4.5-2.8l-2.6,2.9c-0.1,0.2-0.3,0.3-0.6,0.3
		c-0.2,0-0.4-0.1-0.6-0.3l-2.3-3l-5.5,3.2C144.4,29.6,144.3,29.6,144.1,29.6z"/>
</g>
<g>
	<path class="st0" d="M125.6,27.2c-0.1,0-0.2,0-0.3-0.1c-0.4-0.2-0.5-0.6-0.4-1l0.7-1.6c0.2-0.4,0.6-0.5,1-0.4
		c0.4,0.2,0.5,0.6,0.4,1l-0.7,1.6C126.1,27.1,125.8,27.2,125.6,27.2z"/>
	<path class="st0" d="M132,12.9c-0.1,0-0.2,0-0.3-0.1c-0.4-0.2-0.5-0.6-0.4-1l0.7-1.6c0.2-0.4,0.6-0.5,1-0.4c0.4,0.2,0.5,0.6,0.4,1
		l-0.7,1.6C132.5,12.7,132.3,12.9,132,12.9z"/>
	<path class="st0" d="M122.7,16.4c-0.1,0-0.2,0-0.3-0.1l-1.6-0.7c-0.4-0.2-0.5-0.6-0.4-1c0.2-0.4,0.6-0.5,1-0.4L123,15
		c0.4,0.2,0.5,0.6,0.4,1C123.3,16.2,123,16.4,122.7,16.4z"/>
	<path class="st0" d="M137.1,22.8c-0.1,0-0.2,0-0.3-0.1l-1.6-0.7c-0.4-0.2-0.5-0.6-0.4-1c0.2-0.4,0.6-0.5,1-0.4l1.6,0.7
		c0.4,0.2,0.5,0.6,0.4,1C137.7,22.7,137.4,22.8,137.1,22.8z"/>
	<path class="st0" d="M121,22.4c-0.3,0-0.6-0.2-0.7-0.5c-0.1-0.4,0-0.8,0.4-1l1.6-0.6c0.4-0.1,0.8,0,1,0.4c0.1,0.4,0,0.8-0.4,1
		l-1.6,0.6C121.1,22.4,121,22.4,121,22.4z"/>
	<path class="st0" d="M135.7,16.8c-0.3,0-0.6-0.2-0.7-0.5c-0.1-0.4,0-0.8,0.4-1l1.6-0.6c0.4-0.1,0.8,0,1,0.4c0.1,0.4,0,0.8-0.4,1
		l-1.6,0.6C135.8,16.7,135.8,16.8,135.7,16.8z"/>
	<path class="st0" d="M126.6,12.7c-0.3,0-0.6-0.2-0.7-0.5l-0.6-1.6c-0.1-0.4,0-0.8,0.4-1s0.8,0,1,0.4l0.6,1.6c0.1,0.4,0,0.8-0.4,1
		C126.8,12.7,126.7,12.7,126.6,12.7z"/>
	<path class="st0" d="M132.2,27.4c-0.3,0-0.6-0.2-0.7-0.5l-0.6-1.6c-0.1-0.4,0-0.8,0.4-1c0.4-0.1,0.8,0,1,0.4l0.6,1.6
		c0.1,0.4,0,0.8-0.4,1C132.4,27.4,132.3,27.4,132.2,27.4z"/>
	<path class="st0" d="M129.1,22.8c-0.6,0-1.2-0.1-1.7-0.4c-1-0.5-1.8-1.3-2.2-2.4c-0.4-1.1-0.4-2.2,0.1-3.3c1-2.1,3.5-3.1,5.6-2.1
		c1,0.5,1.8,1.3,2.2,2.4c0.4,1.1,0.4,2.2-0.1,3.3c-0.5,1-1.3,1.8-2.4,2.2C130.1,22.7,129.6,22.8,129.1,22.8z M129.1,15.8
		c-1.1,0-2.1,0.6-2.5,1.6c-0.3,0.7-0.3,1.4-0.1,2.1c0.3,0.7,0.8,1.2,1.4,1.5c0.7,0.3,1.4,0.3,2.1,0.1c0.7-0.3,1.2-0.8,1.5-1.4
		s0.3-1.4,0.1-2.1c-0.3-0.7-0.8-1.2-1.4-1.5C129.9,15.8,129.5,15.8,129.1,15.8z"/>
</g>
</svg>
